<?xml version="1.0" encoding="utf-8"?>
<!-- Generator: Adobe Illustrator 21.1.0, SVG Export Plug-In . SVG Version: 6.00 Build 0)  -->
<svg version="1.1" id="圖層_2" xmlns="http://www.w3.org/2000/svg" xmlns:xlink="http://www.w3.org/1999/xlink" x="0px" y="0px"
	 viewBox="0 0 616.5 109" style="enable-background:new 0 0 616.5 109;" xml:space="preserve">
<style type="text/css">
	.st0{fill:#FDFDFF;}
	.st1{fill:#FDFDFF;stroke:#FFFFFF;stroke-width:0.2147;stroke-miterlimit:10;}
	.st2{fill:#FFFFFF;}
	.st3{fill:#FFEA00;}
	.st4{fill:#008CD6;}
</style>
<g>
	<path class="st0" d="M160.8,22.1l7.1-0.6c0.3,0.9,0.7,1.9,1.1,3.2h15.8v9.7h-5.6v-5.6h-27.9v5.6h-5.6v-9.7h16.3
		C161.5,23.8,161.1,22.9,160.8,22.1z M147.3,46.9h35.4v16.5h-5.6v-1.7H153v1.7h-5.6V46.9z M150.7,36h28.6v9h-28.6V36z M178.1,34.3
		h-25.9v-3.6h25.9V34.3z M153,52.6h9.3v-2.1H153V52.6z M153,58.2h9.3v-2.1H153V58.2z M173.6,39.6h-17.2v1.9h17.2V39.6z M177.2,50.5
		h-9.3v2.1h9.3V50.5z M167.9,58.2h9.3v-2.1h-9.3V58.2z"/>
	<path class="st0" d="M229,56.6l-1.9,5.6c-3.7,0.1-7.2,0.1-10.6,0.1c-7.7,0-12.2-0.1-13.6-0.3c-1.3-0.2-2.7-0.6-4-1.1
		c-1.4-0.5-2.7-1.4-4.1-2.6l-4.9,5l-2.4-6.4l4.2-3.6V42.6h-3.9v-5.3h9.4v16.1c2.2,2.4,5.7,3.6,10.5,3.6
		C217.8,56.9,224.9,56.8,229,56.6z M193.5,22.4c2.1,2.7,4,5.3,5.7,7.7l-4.9,3.3c-1.7-2.9-3.4-5.7-5.3-8.3L193.5,22.4z M199.2,46.8
		h13.1v-4h-12v-4.5c1.3-2.2,2.6-4.7,3.8-7.3H200v-5h6.1c0.6-1.4,1.1-2.9,1.6-4.5l6.1,0.9c-0.4,1.1-0.9,2.3-1.5,3.5h14.9v5h-17.1
		c-1,2.2-2.2,4.5-3.4,6.9h5.6v-5.3h5.6v5.3h9v5h-9v4h10.3v5h-10.3v4.7h-5.6v-4.7h-13.1V46.8z"/>
	<path class="st0" d="M241.6,30.2l3.7,7.6c1.1-2.5,2.2-5.1,3.1-7.8l2.8,1.3l2.3-1l3.4,7.4c1.1-2.5,2.1-5.1,3-7.8l4.5,1.9
		c-1.4,4.2-3,8.2-4.7,12.1l4.4,9.8l-4.8,2.4l-2.5-6.1c-1.4,2.7-2.8,5.3-4.3,7.8c-0.6-0.5-1.3-1-1.9-1.4l-2.3,1.1l-3.3-7.7
		c-1.6,3-3.3,5.9-5.1,8.5c-0.7-0.7-1.6-1.4-2.6-2.2v7H232V23.4h38.2v32.3c0,2.2-0.4,3.8-1.2,5c-0.8,1.2-2,1.9-3.5,2
		c-1.5,0.2-4.3,0.3-8.4,0.3c-0.4-2.3-0.8-4.2-1.3-5.9c2,0.2,4,0.3,6.1,0.3c1.8,0,2.7-0.9,2.7-2.6V28.6h-27v3.7L241.6,30.2z
		 M237.7,33.1v19.2c1.8-2.7,3.4-5.6,4.9-8.7C241,40,239.3,36.5,237.7,33.1z M251.3,36.8c-1,2.5-2,4.9-3.1,7.1l2.9,6.3
		c1.1-2.1,2.2-4.2,3.2-6.4L251.3,36.8z"/>
	<path class="st0" d="M274.5,60.1l-1.1-6.3l3.7-1V38.3h-3v-5.8h3V22.1h5.5v10.4h2.6v5.8h-2.6v12.7c1.2-0.4,2.4-0.7,3.7-1.1
		c-0.1,1-0.1,2-0.1,3c0,1,0,2,0.1,3C282.7,57,278.8,58.4,274.5,60.1z M295.1,21.6c1,1.6,2,3.1,2.9,4.6h4.3l2.7-4.7l5.3,1.7l-2.3,2.9
		h5.6v16.2h-27V26.2h5.7c-0.6-0.9-1.2-1.9-1.9-2.9L295.1,21.6z M288.4,63.3V44.4h23.2v18.9h-5.3v-1.7h-12.6v1.7H288.4z M291.2,38.1
		h6.5v-7.6h-6.5V38.1z M294.5,31.1c0.8,1.4,1.8,3.1,2.7,5c-1.2,0.6-2.3,1.2-3.1,1.7c-0.9-1.9-1.8-3.6-2.6-5L294.5,31.1z M306.3,48.5
		h-12.6v2.5h12.6V48.5z M293.7,57.5h12.6v-2.5h-12.6V57.5z M308.8,38.1v-7.6h-6.5v7.6H308.8z M305.5,31.1l2.9,1.6
		c-1,1.9-1.9,3.6-2.8,5.1c-1-0.6-2-1.2-2.9-1.6C303.8,34.3,304.7,32.6,305.5,31.1z"/>
	<path class="st0" d="M323.3,21.6l5.6,1.5c-1.1,3.4-2.3,6.6-3.6,9.8v30.4H320V44c-0.8,1.4-1.5,2.7-2.4,4c-0.3-2.2-0.8-4.8-1.4-7.9
		C318.9,34.7,321.3,28.5,323.3,21.6z M326.8,57.5h3.1V32.5h9.8V30h-10.8v-4.7h10.8v-3.2h5.6v3.2h12.1V30h-12.1v2.5h10.1v25.1h2.9
		v4.7h-31.5V57.5z M350.1,36.7h-14.9v2.2h14.9V36.7z M335.2,45.1h14.9v-2.2h-14.9V45.1z M335.2,51.3h14.9v-2.2h-14.9V51.3z
		 M335.2,57.5h14.9v-2.2h-14.9V57.5z"/>
	<path class="st0" d="M363.3,63.4c-1.2-1.8-2.5-3.4-3.9-4.8c1.1-2.2,1.7-4.7,2.1-7.4c0.3-2.7,0.5-7.2,0.5-13.4V23.4h13.6v34
		c0,1.6-0.4,2.8-1.2,3.8c-0.8,1-3.1,1.5-6.8,1.5c-0.4-2-0.9-4-1.5-5.7c0.9,0.1,1.8,0.2,2.6,0.2c1.3,0,2-0.8,2-2.4v-5.2h-3.8
		C366.6,55.7,365.4,60.3,363.3,63.4z M367,44.6h3.7v-5.4H367C367,41.1,367,42.9,367,44.6z M370.6,28.8H367v5.4h3.6V28.8z
		 M400.2,38.4v4.8c-1.1,4-2.7,7.6-4.7,10.7c1.7,1.4,3.7,2.5,5.9,3.4c-1.1,1.6-2.3,3.5-3.5,5.6c-2.2-1.3-4.2-2.8-6-4.5
		c-1.8,1.8-3.8,3.4-6,4.8c-0.7-1.5-1.6-3-2.5-4.4V63h-5.4V23.4h21.7c0,4.3-0.1,7.1-0.4,8.4s-0.8,2.3-1.5,3.1s-1.6,1.2-2.6,1.4
		s-3.8,0.3-8.4,0.2c-0.3-1.7-0.6-3.4-1.1-5.1c2.4,0.2,4.2,0.3,5.4,0.3c0.8,0,1.4-0.2,1.9-0.5c0.5-0.3,0.7-1.3,0.7-2.8h-10.4v10.1
		H400.2z M388.3,43.7c0.8,2.3,1.9,4.4,3.2,6.2c1.3-1.9,2.3-4.1,3-6.5h-11.3v13.9c1.8-0.9,3.3-2,4.7-3.3c-1.7-2.5-3.2-5.3-4.4-8.4
		L388.3,43.7z"/>
	<path class="st0" d="M417.8,42.1h6c-0.1,1.3-0.3,2.7-0.6,4H441l-0.7,9.6c-0.1,1.6-0.6,2.9-1.4,4c-0.8,1-1.9,1.8-3.3,2.3
		c-1.4,0.5-4.1,0.7-8.2,0.7c-1.4,0-2.9,0-4.4-0.1c-0.3-1.7-0.7-3.5-1.3-5.7c3.1,0.3,5.8,0.4,8.1,0.4c1.2,0,2.1-0.2,2.8-0.5
		c0.7-0.4,1.1-0.9,1.3-1.5c0.2-0.7,0.3-2,0.4-4h-12.3c-2.1,5.9-7.3,10-15.5,12.2c-1.1-1.5-2.4-3.1-4-4.8c6.4-1.5,10.7-4,12.8-7.4
		H404V46h13.1C417.4,44.8,417.6,43.5,417.8,42.1z M440.7,25.3v4.5c-2.7,2.6-5.9,4.8-9.7,6.8c4,0.9,8.4,1.4,13.2,1.5
		c-0.9,2.1-1.6,3.9-2.3,5.6c-7.2-0.7-13.3-2-18.5-3.9c-5.4,1.9-11.7,3.4-18.7,4.4c-0.6-1.5-1.3-3.2-2.3-5.3c5.2-0.5,10-1.3,14.2-2.3
		c-2-1.2-3.7-2.5-5.2-4c-1.6,1.3-3.4,2.6-5.2,3.7c-1-1.3-2.1-2.7-3.4-4.2c5.4-3.1,9.5-6.6,12.2-10.4h6.4c-0.8,1.2-1.7,2.4-2.6,3.6
		H440.7z M423.8,34.4c3.2-1.2,6.1-2.7,8.5-4.4h-16.4C418.2,31.7,420.9,33.2,423.8,34.4z"/>
	<path class="st1" d="M456.3,50.6l2.7,2.1c-3.6,3.2-7.4,6.3-11.3,9.3c-0.7-0.8-1.4-1.7-2.3-2.6C449,57.1,452.6,54.1,456.3,50.6z
		 M475.2,39.1c3.6,2.9,7.3,6.1,11,9.5c-0.9,0.9-1.8,1.8-2.6,2.6c-1.2-1.1-2.3-2.3-3.5-3.4c-3.7,0.2-7.6,0.3-11.5,0.5v9.5
		c0,3.2-1.7,4.8-5,4.8c-1.4,0-3.2,0-5.4-0.1c-0.1-1-0.3-2.2-0.5-3.4c2.4,0.3,4.2,0.4,5.4,0.4c1.5,0,2.3-0.8,2.3-2.3v-8.7
		c-3.4,0.2-6.9,0.4-10.4,0.6c-1.6,0.1-3.2,0.3-4.8,0.5l-1.4-3.6c1.8-0.3,3.6-0.9,5.3-1.6c4.3-2.1,8.3-4.2,11.9-6.3
		c-4.9,0.4-9,0.7-12.3,1c-1.5,0.1-2.6,0.3-3.3,0.5l-1.3-3.5c1.3-0.3,2.6-0.8,3.8-1.5c3.5-2,7-4.3,10.6-7c-4.8,0.3-9.7,0.6-14.6,0.8
		c-0.2-1-0.4-2-0.8-2.9c13.4-0.5,25.2-1.3,35.6-2.3l0.6,3c-6.1,0.5-12.3,1-18.5,1.4l1.7,1.2c-4.4,2.9-8.5,5.4-12.2,7.4
		c6.3-0.4,11.5-0.7,15.6-1c2.8-1.8,5.4-3.6,7.8-5.4l2.7,2.2c-7,5-15.2,9.7-24.5,14.1c5.6-0.2,12.3-0.5,20.3-0.9
		c-1.4-1.3-2.8-2.6-4.2-3.8L475.2,39.1z M472.7,52.9l2.1-2.3c3.5,2.4,7.4,5.2,11.6,8.5l-2.5,2.7C480.1,58.5,476.3,55.6,472.7,52.9z"
		/>
	<path class="st1" d="M488.5,56.1c4.7-0.9,9.5-1.9,14.4-3c-0.1,1.5-0.2,2.5-0.2,3c-5.1,1.1-9.5,2.2-13.3,3.2L488.5,56.1z M494,47.2
		c2.2-0.3,5.1-0.7,8.6-1.3c-0.2,1.1-0.3,2.2-0.4,3.1c-3.5,0.5-7.5,1.1-12,1.8l-0.7-3c1.8-1.8,3.8-4.7,6.2-8.8
		c-2.9,0.2-5,0.3-6.3,0.4l-0.8-2.9c2.5-3.3,5.1-8.2,8-14.9l3.2,1.3c-2.7,5.3-5.2,9.8-7.4,13.4c1.8,0,3.5-0.1,5-0.1
		c0.8-1.5,1.7-3.1,2.6-4.9l3.2,1.4C500,38.4,496.9,43.2,494,47.2z M522.3,33.1c2.4,3.2,4.8,6.7,7.2,10.7c-1,0.6-2,1.2-3.1,1.9
		c-0.7-1.2-1.4-2.3-2-3.4c-1.3,0.1-2.6,0.2-4,0.2v14.3c0,1.7,0.6,2.6,1.9,2.6h2.1c1.4,0,2.2-0.7,2.4-2.1c0.2-1.7,0.4-3.5,0.4-5.5
		c0.9,0.4,2,0.8,3.4,1.2c-0.2,2.4-0.5,4.3-0.7,5.7c-0.4,2.4-1.9,3.7-4.4,3.7h-3.6c-3.1,0-4.6-1.8-4.6-5.3V42.7
		c-1.6,0.1-3.2,0.2-4.9,0.3c-0.2,6.1-1,10.4-2.4,12.8c-1.6,3.1-4.6,5.6-9,7.7c-0.6-0.9-1.3-1.8-2.1-2.8c4.1-1.7,6.8-3.8,8.2-6.5
		c1.3-2.1,1.9-5.8,2-10.9c-0.6,0-1.2,0.1-1.7,0.1c-1.2,0.1-2.3,0.3-3.4,0.5l-1.4-3.3c1.2-0.5,2.2-1.2,2.9-2c2.1-2.5,4.1-5.2,5.9-8.2
		h-9.2v-3h13.4c-1.1-1.6-2-3-3-4.3l2.8-1.7c1.1,1.3,2.3,2.9,3.6,4.7l-2,1.3h12.8v3h-17.1l2.3,1c-2.3,3.1-4.6,6-6.9,8.7
		c5.3-0.2,10.1-0.4,14.6-0.6c-1.1-1.7-2.1-3.3-3-4.7L522.3,33.1z"/>
	<path class="st1" d="M543.4,24.3l2.8-2c3.1,1.9,6.6,6.9,10.3,14.9c5.2,11.5,10.9,18.5,17.1,21l-2.9,3.7c-6.1-3.6-11.8-11.3-17-23
		c-0.4-0.9-0.8-1.8-1.2-2.7c-3.3,11.1-9.3,19.8-18.1,26c-0.8-1.1-1.6-2.2-2.6-3.2c9.1-5.7,15.2-14.8,18.4-27.2
		C547.8,28.1,545.6,25.6,543.4,24.3z"/>
	<path class="st1" d="M578.9,26h33.4v35.4h-3.6v-4.1h-26.2v4.1h-3.6V26z M608.7,54.2v-25h-26.2v25H608.7z"/>
</g>
<g>
	<path class="st2" d="M145.5,95.5V74.1h14.7v3.6h-10.4v5.1h9v3.6h-9v9.1H145.5z"/>
	<path class="st2" d="M163.5,95.5V74.1h4.1v21.5H163.5z"/>
	<path class="st2" d="M185.6,95.5h-4.1v-7.9c0-1.7-0.1-2.8-0.3-3.3c-0.2-0.5-0.5-0.9-0.9-1.1c-0.4-0.3-0.9-0.4-1.4-0.4
		c-0.7,0-1.4,0.2-1.9,0.6c-0.6,0.4-1,0.9-1.2,1.6c-0.2,0.6-0.3,1.8-0.3,3.6v7h-4.1V80h3.8v2.3c1.4-1.8,3.1-2.6,5.1-2.6
		c0.9,0,1.7,0.2,2.5,0.5c0.8,0.3,1.3,0.7,1.7,1.3c0.4,0.5,0.7,1.1,0.8,1.7c0.2,0.6,0.2,1.6,0.2,2.8V95.5z"/>
	<path class="st2" d="M198.5,90.6l4.1,0.7c-0.5,1.5-1.4,2.6-2.5,3.4c-1.1,0.8-2.6,1.2-4.3,1.2c-2.7,0-4.7-0.9-6-2.6
		c-1-1.4-1.5-3.2-1.5-5.4c0-2.6,0.7-4.6,2-6.1c1.3-1.5,3-2.2,5.1-2.2c2.3,0,4.1,0.8,5.5,2.3c1.3,1.5,2,3.9,1.9,7h-10.3
		c0,1.2,0.4,2.2,1,2.8c0.6,0.7,1.4,1,2.4,1c0.6,0,1.2-0.2,1.6-0.5C198,91.9,198.3,91.4,198.5,90.6z M198.7,86.4
		c0-1.2-0.3-2.1-0.9-2.7c-0.6-0.6-1.3-0.9-2.1-0.9c-0.9,0-1.6,0.3-2.2,1c-0.6,0.7-0.9,1.5-0.9,2.7H198.7z"/>
	<path class="st2" d="M213,80v3.3h-2.8v6.3c0,1.3,0,2,0.1,2.2c0.1,0.2,0.2,0.4,0.4,0.5s0.4,0.2,0.7,0.2c0.4,0,0.9-0.1,1.7-0.4
		l0.4,3.2c-1,0.4-2,0.6-3.2,0.6c-0.7,0-1.4-0.1-2-0.4c-0.6-0.2-1-0.6-1.3-1c-0.3-0.4-0.5-0.9-0.6-1.6c-0.1-0.5-0.1-1.4-0.1-2.9v-6.8
		h-1.9V80h1.9v-3.1l4.1-2.4V80H213z"/>
	<path class="st2" d="M229.1,95.5l-7.7-21.5h4.7l5.4,15.9l5.3-15.9h4.6l-7.7,21.5H229.1z"/>
	<path class="st2" d="M244.7,84.7l-3.7-0.7c0.4-1.5,1.1-2.6,2.2-3.3s2.5-1.1,4.6-1.1c1.8,0,3.2,0.2,4.1,0.7c0.9,0.4,1.5,1,1.9,1.7
		c0.4,0.7,0.5,1.9,0.5,3.7l0,4.8c0,1.4,0.1,2.4,0.2,3c0.1,0.6,0.4,1.3,0.7,2.1h-4.1c-0.1-0.3-0.2-0.7-0.4-1.2
		c-0.1-0.2-0.1-0.4-0.1-0.5c-0.7,0.7-1.5,1.2-2.3,1.5c-0.8,0.3-1.7,0.5-2.6,0.5c-1.6,0-2.9-0.4-3.8-1.3s-1.4-2-1.4-3.3
		c0-0.9,0.2-1.7,0.6-2.3c0.4-0.7,1-1.2,1.8-1.6c0.8-0.4,1.8-0.7,3.3-1c1.9-0.4,3.3-0.7,4-1V85c0-0.8-0.2-1.4-0.6-1.7
		c-0.4-0.3-1.1-0.5-2.2-0.5c-0.7,0-1.3,0.1-1.7,0.4C245.3,83.5,244.9,84,244.7,84.7z M250.2,88.1c-0.5,0.2-1.4,0.4-2.5,0.6
		c-1.1,0.2-1.9,0.5-2.2,0.7c-0.5,0.4-0.8,0.9-0.8,1.4c0,0.6,0.2,1.1,0.6,1.5c0.4,0.4,1,0.6,1.6,0.6c0.7,0,1.4-0.2,2.1-0.7
		c0.5-0.4,0.8-0.8,1-1.4c0.1-0.4,0.2-1,0.2-2V88.1z"/>
	<path class="st2" d="M258,95.5V74.1h4.1v21.5H258z"/>
	<path class="st2" d="M276.2,95.5v-2.3c-0.6,0.8-1.3,1.5-2.2,2c-0.9,0.5-1.9,0.7-2.9,0.7c-1,0-2-0.2-2.8-0.7
		c-0.8-0.5-1.4-1.1-1.8-1.9c-0.4-0.8-0.6-2-0.6-3.4V80h4.1v7.1c0,2.2,0.1,3.5,0.2,4c0.2,0.5,0.4,0.9,0.8,1.2s0.9,0.4,1.5,0.4
		c0.7,0,1.3-0.2,1.9-0.6c0.6-0.4,0.9-0.9,1.1-1.4c0.2-0.6,0.3-2,0.3-4.2V80h4.1v15.5H276.2z"/>
	<path class="st2" d="M293,90.6l4.1,0.7c-0.5,1.5-1.4,2.6-2.5,3.4c-1.1,0.8-2.6,1.2-4.3,1.2c-2.7,0-4.7-0.9-6-2.6
		c-1-1.4-1.5-3.2-1.5-5.4c0-2.6,0.7-4.6,2-6.1c1.3-1.5,3-2.2,5.1-2.2c2.3,0,4.1,0.8,5.5,2.3c1.3,1.5,2,3.9,1.9,7H287
		c0,1.2,0.4,2.2,1,2.8c0.6,0.7,1.4,1,2.4,1c0.6,0,1.2-0.2,1.6-0.5C292.5,91.9,292.8,91.4,293,90.6z M293.3,86.4
		c0-1.2-0.3-2.1-0.9-2.7c-0.6-0.6-1.3-0.9-2.1-0.9c-0.9,0-1.6,0.3-2.2,1c-0.6,0.7-0.9,1.5-0.9,2.7H293.3z"/>
	<path class="st2" d="M299.9,89.8v-4.1h8.1v4.1H299.9z"/>
	<path class="st2" d="M313.1,84.7l-3.7-0.7c0.4-1.5,1.1-2.6,2.2-3.3s2.5-1.1,4.6-1.1c1.8,0,3.2,0.2,4.1,0.7c0.9,0.4,1.5,1,1.9,1.7
		c0.4,0.7,0.5,1.9,0.5,3.7l0,4.8c0,1.4,0.1,2.4,0.2,3c0.1,0.6,0.4,1.3,0.7,2.1h-4.1c-0.1-0.3-0.2-0.7-0.4-1.2
		c-0.1-0.2-0.1-0.4-0.1-0.5c-0.7,0.7-1.5,1.2-2.3,1.5c-0.8,0.3-1.7,0.5-2.6,0.5c-1.6,0-2.9-0.4-3.8-1.3s-1.4-2-1.4-3.3
		c0-0.9,0.2-1.7,0.6-2.3c0.4-0.7,1-1.2,1.8-1.6c0.8-0.4,1.8-0.7,3.3-1c1.9-0.4,3.3-0.7,4-1V85c0-0.8-0.2-1.4-0.6-1.7
		c-0.4-0.3-1.1-0.5-2.2-0.5c-0.7,0-1.3,0.1-1.7,0.4C313.7,83.5,313.4,84,313.1,84.7z M318.6,88.1c-0.5,0.2-1.4,0.4-2.5,0.6
		c-1.1,0.2-1.9,0.5-2.2,0.7c-0.5,0.4-0.8,0.9-0.8,1.4c0,0.6,0.2,1.1,0.6,1.5c0.4,0.4,1,0.6,1.6,0.6c0.7,0,1.4-0.2,2.1-0.7
		c0.5-0.4,0.8-0.8,1-1.4c0.1-0.4,0.2-1,0.2-2V88.1z"/>
	<path class="st2" d="M340.7,95.5h-3.8v-2.3c-0.6,0.9-1.4,1.5-2.2,2c-0.9,0.4-1.7,0.7-2.6,0.7c-1.8,0-3.3-0.7-4.6-2.2
		c-1.3-1.4-1.9-3.4-1.9-6c0-2.6,0.6-4.6,1.9-6c1.2-1.4,2.8-2.1,4.7-2.1c1.7,0,3.2,0.7,4.5,2.2v-7.7h4.1V95.5z M329.7,87.4
		c0,1.7,0.2,2.9,0.7,3.6c0.7,1.1,1.6,1.6,2.8,1.6c0.9,0,1.8-0.4,2.4-1.2c0.7-0.8,1-2,1-3.6c0-1.8-0.3-3.1-1-3.9
		c-0.6-0.8-1.5-1.2-2.5-1.2c-1,0-1.8,0.4-2.5,1.2S329.7,85.9,329.7,87.4z"/>
	<path class="st2" d="M358.7,95.5h-3.8v-2.3c-0.6,0.9-1.4,1.5-2.2,2c-0.9,0.4-1.7,0.7-2.6,0.7c-1.8,0-3.3-0.7-4.6-2.2
		c-1.3-1.4-1.9-3.4-1.9-6c0-2.6,0.6-4.6,1.9-6c1.2-1.4,2.8-2.1,4.7-2.1c1.7,0,3.2,0.7,4.5,2.2v-7.7h4.1V95.5z M347.7,87.4
		c0,1.7,0.2,2.9,0.7,3.6c0.7,1.1,1.6,1.6,2.8,1.6c0.9,0,1.8-0.4,2.4-1.2c0.7-0.8,1-2,1-3.6c0-1.8-0.3-3.1-1-3.9
		c-0.6-0.8-1.5-1.2-2.5-1.2c-1,0-1.8,0.4-2.5,1.2S347.7,85.9,347.7,87.4z"/>
	<path class="st2" d="M371.4,90.6l4.1,0.7c-0.5,1.5-1.4,2.6-2.5,3.4c-1.1,0.8-2.6,1.2-4.3,1.2c-2.7,0-4.7-0.9-6-2.6
		c-1-1.4-1.5-3.2-1.5-5.4c0-2.6,0.7-4.6,2-6.1c1.3-1.5,3-2.2,5.1-2.2c2.3,0,4.1,0.8,5.5,2.3c1.3,1.5,2,3.9,1.9,7h-10.3
		c0,1.2,0.4,2.2,1,2.8c0.6,0.7,1.4,1,2.4,1c0.6,0,1.2-0.2,1.6-0.5C370.9,91.9,371.2,91.4,371.4,90.6z M371.7,86.4
		c0-1.2-0.3-2.1-0.9-2.7c-0.6-0.6-1.3-0.9-2.1-0.9c-0.9,0-1.6,0.3-2.2,1c-0.6,0.7-0.9,1.5-0.9,2.7H371.7z"/>
	<path class="st2" d="M393.1,95.5h-3.8v-2.3c-0.6,0.9-1.4,1.5-2.2,2c-0.9,0.4-1.7,0.7-2.6,0.7c-1.8,0-3.3-0.7-4.6-2.2
		c-1.3-1.4-1.9-3.4-1.9-6c0-2.6,0.6-4.6,1.9-6c1.2-1.4,2.8-2.1,4.7-2.1c1.7,0,3.2,0.7,4.5,2.2v-7.7h4.1V95.5z M382.1,87.4
		c0,1.7,0.2,2.9,0.7,3.6c0.7,1.1,1.6,1.6,2.8,1.6c0.9,0,1.8-0.4,2.4-1.2c0.7-0.8,1-2,1-3.6c0-1.8-0.3-3.1-1-3.9
		c-0.6-0.8-1.5-1.2-2.5-1.2c-1,0-1.8,0.4-2.5,1.2C382.4,84.7,382.1,85.9,382.1,87.4z"/>
	<path class="st2" d="M403.8,88.6l4.2-0.4c0.3,1.4,0.8,2.5,1.5,3.1c0.8,0.7,1.8,1,3.1,1c1.4,0,2.4-0.3,3.2-0.9
		c0.7-0.6,1.1-1.3,1.1-2.1c0-0.5-0.1-0.9-0.4-1.3c-0.3-0.4-0.8-0.7-1.6-0.9c-0.5-0.2-1.7-0.5-3.5-0.9c-2.3-0.6-4-1.3-4.9-2.1
		c-1.3-1.2-2-2.6-2-4.3c0-1.1,0.3-2.1,0.9-3.1c0.6-1,1.5-1.7,2.7-2.2c1.2-0.5,2.6-0.7,4.2-0.7c2.7,0,4.7,0.6,6.1,1.8
		c1.4,1.2,2.1,2.8,2.1,4.7l-4.3,0.2c-0.2-1.1-0.6-1.9-1.2-2.4c-0.6-0.5-1.5-0.7-2.7-0.7c-1.3,0-2.2,0.3-3,0.8
		c-0.5,0.3-0.7,0.8-0.7,1.3c0,0.5,0.2,0.9,0.6,1.3c0.5,0.5,1.9,0.9,4,1.4c2.1,0.5,3.7,1,4.7,1.5c1,0.5,1.8,1.3,2.4,2.2
		c0.6,0.9,0.9,2.1,0.9,3.4c0,1.2-0.3,2.4-1,3.5s-1.6,1.9-2.9,2.4s-2.8,0.8-4.7,0.8c-2.7,0-4.8-0.6-6.2-1.9
		C404.9,92.8,404.1,91,403.8,88.6z"/>
	<path class="st2" d="M433.5,90.6l4.1,0.7c-0.5,1.5-1.4,2.6-2.5,3.4c-1.1,0.8-2.6,1.2-4.3,1.2c-2.7,0-4.7-0.9-6-2.6
		c-1-1.4-1.5-3.2-1.5-5.4c0-2.6,0.7-4.6,2-6.1c1.3-1.5,3-2.2,5.1-2.2c2.3,0,4.1,0.8,5.5,2.3c1.3,1.5,2,3.9,1.9,7h-10.3
		c0,1.2,0.4,2.2,1,2.8c0.6,0.7,1.4,1,2.4,1c0.6,0,1.2-0.2,1.6-0.5C433,91.9,433.3,91.4,433.5,90.6z M433.8,86.4
		c0-1.2-0.3-2.1-0.9-2.7c-0.6-0.6-1.3-0.9-2.1-0.9c-0.9,0-1.6,0.3-2.2,1c-0.6,0.7-0.9,1.5-0.9,2.7H433.8z"/>
	<path class="st2" d="M444.8,95.5h-4.1V80h3.8v2.2c0.7-1,1.2-1.7,1.8-2.1c0.5-0.3,1.1-0.5,1.8-0.5c0.9,0,1.8,0.3,2.7,0.8l-1.3,3.6
		c-0.7-0.4-1.3-0.7-1.9-0.7c-0.6,0-1.1,0.2-1.5,0.5c-0.4,0.3-0.7,0.9-0.9,1.7c-0.2,0.8-0.3,2.6-0.3,5.2V95.5z"/>
	<path class="st2" d="M456.5,95.5L450.3,80h4.3l2.9,7.9l0.8,2.6c0.2-0.7,0.4-1.1,0.4-1.3c0.1-0.4,0.3-0.9,0.4-1.3l3-7.9h4.2
		l-6.2,15.5H456.5z"/>
	<path class="st2" d="M468.6,77.9v-3.8h4.1v3.8H468.6z M468.6,95.5V80h4.1v15.5H468.6z"/>
	<path class="st2" d="M490.2,84.6l-4.1,0.7c-0.1-0.8-0.4-1.4-0.9-1.8c-0.5-0.4-1.1-0.6-1.9-0.6c-1,0-1.8,0.4-2.5,1.1
		c-0.6,0.7-0.9,1.9-0.9,3.5c0,1.8,0.3,3.1,0.9,3.9c0.6,0.8,1.5,1.1,2.5,1.1c0.8,0,1.4-0.2,1.9-0.7c0.5-0.4,0.8-1.2,1.1-2.3l4,0.7
		c-0.4,1.9-1.2,3.3-2.4,4.2s-2.8,1.4-4.8,1.4c-2.3,0-4.1-0.7-5.4-2.2c-1.4-1.4-2-3.4-2-6c0-2.6,0.7-4.6,2-6c1.4-1.4,3.2-2.1,5.5-2.1
		c1.9,0,3.4,0.4,4.5,1.2C488.9,81.7,489.7,82.9,490.2,84.6z"/>
	<path class="st2" d="M502,90.6l4.1,0.7c-0.5,1.5-1.4,2.6-2.5,3.4c-1.1,0.8-2.6,1.2-4.3,1.2c-2.7,0-4.7-0.9-6-2.6
		c-1-1.4-1.5-3.2-1.5-5.4c0-2.6,0.7-4.6,2-6.1c1.3-1.5,3-2.2,5.1-2.2c2.3,0,4.1,0.8,5.5,2.3c1.3,1.5,2,3.9,1.9,7H496
		c0,1.2,0.4,2.2,1,2.8c0.6,0.7,1.4,1,2.4,1c0.6,0,1.2-0.2,1.6-0.5C501.5,91.9,501.8,91.4,502,90.6z M502.3,86.4
		c0-1.2-0.3-2.1-0.9-2.7c-0.6-0.6-1.3-0.9-2.1-0.9c-0.9,0-1.6,0.3-2.2,1c-0.6,0.7-0.9,1.5-0.9,2.7H502.3z"/>
	<path class="st2" d="M507.9,91.1l4.1-0.6c0.2,0.8,0.5,1.4,1.1,1.8c0.5,0.4,1.3,0.6,2.3,0.6c1.1,0,1.9-0.2,2.4-0.6
		c0.4-0.3,0.5-0.6,0.5-1.1c0-0.3-0.1-0.6-0.3-0.8c-0.2-0.2-0.7-0.4-1.4-0.5c-3.3-0.7-5.4-1.4-6.3-2c-1.2-0.8-1.8-2-1.8-3.5
		c0-1.3,0.5-2.5,1.6-3.4s2.7-1.4,4.9-1.4c2.1,0,3.7,0.3,4.7,1c1,0.7,1.7,1.7,2.1,3.1l-3.9,0.7c-0.2-0.6-0.5-1.1-0.9-1.4
		c-0.5-0.3-1.1-0.5-2-0.5c-1.1,0-1.9,0.2-2.3,0.5c-0.3,0.2-0.5,0.5-0.5,0.8c0,0.3,0.1,0.5,0.4,0.7c0.4,0.3,1.7,0.7,3.8,1.2
		c2.2,0.5,3.7,1.1,4.6,1.8c0.9,0.7,1.3,1.8,1.3,3.1c0,1.4-0.6,2.6-1.8,3.7c-1.2,1-3,1.5-5.3,1.5c-2.1,0-3.8-0.4-5-1.3
		S508.3,92.6,507.9,91.1z"/>
	<path class="st2" d="M533.8,95.5V74.1h7c2.6,0,4.4,0.1,5.2,0.3c1.2,0.3,2.3,1,3.1,2.1s1.2,2.5,1.2,4.2c0,1.3-0.2,2.4-0.7,3.3
		c-0.5,0.9-1.1,1.6-1.8,2.1c-0.7,0.5-1.5,0.9-2.2,1c-1,0.2-2.5,0.3-4.5,0.3h-2.8v8.1H533.8z M538.1,77.7v6.1h2.4
		c1.7,0,2.8-0.1,3.4-0.3c0.6-0.2,1-0.6,1.4-1.1c0.3-0.5,0.5-1,0.5-1.7c0-0.8-0.2-1.4-0.7-1.9c-0.5-0.5-1-0.8-1.7-1
		c-0.5-0.1-1.6-0.1-3.1-0.1H538.1z"/>
	<path class="st2" d="M552.5,87.6c0-1.4,0.3-2.7,1-4c0.7-1.3,1.6-2.3,2.9-2.9s2.6-1,4.1-1c2.4,0,4.3,0.8,5.8,2.3
		c1.5,1.5,2.3,3.5,2.3,5.8c0,2.4-0.8,4.3-2.3,5.8c-1.5,1.5-3.4,2.3-5.7,2.3c-1.4,0-2.8-0.3-4.1-1c-1.3-0.6-2.3-1.6-2.9-2.8
		C552.9,90.9,552.5,89.3,552.5,87.6z M556.7,87.8c0,1.5,0.4,2.7,1.1,3.5c0.7,0.8,1.6,1.2,2.7,1.2s2-0.4,2.7-1.2
		c0.7-0.8,1.1-2,1.1-3.6c0-1.5-0.4-2.7-1.1-3.5c-0.7-0.8-1.6-1.2-2.7-1.2s-2,0.4-2.7,1.2S556.7,86.2,556.7,87.8z"/>
	<path class="st2" d="M575.4,95.5h-4.1V80h3.8v2.2c0.7-1,1.2-1.7,1.8-2.1c0.5-0.3,1.1-0.5,1.8-0.5c0.9,0,1.8,0.3,2.7,0.8l-1.3,3.6
		c-0.7-0.4-1.3-0.7-1.9-0.7c-0.6,0-1.1,0.2-1.5,0.5c-0.4,0.3-0.7,0.9-0.9,1.7c-0.2,0.8-0.3,2.6-0.3,5.2V95.5z"/>
	<path class="st2" d="M590,80v3.3h-2.8v6.3c0,1.3,0,2,0.1,2.2s0.2,0.4,0.4,0.5s0.4,0.2,0.7,0.2c0.4,0,0.9-0.1,1.7-0.4l0.4,3.2
		c-1,0.4-2,0.6-3.2,0.6c-0.7,0-1.4-0.1-2-0.4c-0.6-0.2-1-0.6-1.3-1c-0.3-0.4-0.5-0.9-0.6-1.6c-0.1-0.5-0.1-1.4-0.1-2.9v-6.8h-1.9V80
		h1.9v-3.1l4.1-2.4V80H590z"/>
	<path class="st2" d="M595.6,84.7l-3.7-0.7c0.4-1.5,1.1-2.6,2.2-3.3s2.5-1.1,4.6-1.1c1.8,0,3.2,0.2,4.1,0.7c0.9,0.4,1.5,1,1.9,1.7
		c0.4,0.7,0.5,1.9,0.5,3.7l0,4.8c0,1.4,0.1,2.4,0.2,3s0.4,1.3,0.7,2.1H602c-0.1-0.3-0.2-0.7-0.4-1.2c-0.1-0.2-0.1-0.4-0.1-0.5
		c-0.7,0.7-1.5,1.2-2.3,1.5c-0.8,0.3-1.7,0.5-2.6,0.5c-1.6,0-2.9-0.4-3.8-1.3s-1.4-2-1.4-3.3c0-0.9,0.2-1.7,0.6-2.3
		c0.4-0.7,1-1.2,1.8-1.6c0.8-0.4,1.8-0.7,3.3-1c1.9-0.4,3.3-0.7,4-1V85c0-0.8-0.2-1.4-0.6-1.7c-0.4-0.3-1.1-0.5-2.2-0.5
		c-0.7,0-1.3,0.1-1.7,0.4C596.2,83.5,595.8,84,595.6,84.7z M601.1,88.1c-0.5,0.2-1.4,0.4-2.5,0.6c-1.1,0.2-1.9,0.5-2.2,0.7
		c-0.5,0.4-0.8,0.9-0.8,1.4c0,0.6,0.2,1.1,0.6,1.5c0.4,0.4,1,0.6,1.6,0.6c0.7,0,1.4-0.2,2.1-0.7c0.5-0.4,0.8-0.8,1-1.4
		c0.1-0.4,0.2-1,0.2-2V88.1z"/>
	<path class="st2" d="M608.9,95.5V74.1h4.1v21.5H608.9z"/>
</g>
<g>
	<path class="st3" d="M61.2,6C34.6,6.2,13,27.7,13,54.3c0,26.5,21.6,48,48.2,48.2c26.7-0.2,48.2-21.7,48.2-48.2
		C109.5,27.7,88,6.2,61.2,6"/>
	<path class="st4" d="M90.2,66.6c-0.2,0-0.3,0-0.4,0.1l-0.2,0.1l0,0c-8.4,5.5-18.2,8.4-28.3,8.4S41.3,72.3,33,66.8l0,0l-0.2-0.1
		c-0.1-0.1-0.3-0.2-0.5-0.2c-0.4,0-0.8,0.4-0.8,0.8c0,0.2,0.1,0.4,0.2,0.5c7.4,8.6,18.1,13.5,29.5,13.5c11.3,0,22.1-4.9,29.5-13.4
		l0,0l0,0c0.2-0.1,0.2-0.3,0.2-0.6C91,66.9,90.6,66.6,90.2,66.6z"/>
	<path class="st4" d="M45,40.2c0-0.2,0-0.3-0.1-0.4c-0.1-0.1-0.3-0.2-0.5-0.2H33.1c-0.4,0-0.9,0.3-0.9,0.7c0,0.2,0,0.3,0.1,0.4
		c0.1,0.1,0.3,0.2,0.5,0.2H44C44.5,40.9,44.9,40.6,45,40.2z"/>
	<path class="st4" d="M45.4,46.7H29.7c-0.6,0-1.1,0.4-1.2,0.9l-1.1,5.2c0,0.2,0,0.4,0.1,0.6c0.2,0.2,0.4,0.3,0.7,0.3h15.8
		c0.6,0,1.1-0.4,1.2-0.9l1.1-5.2c0-0.2,0-0.4-0.1-0.6C46,46.8,45.7,46.7,45.4,46.7z M34.8,51.6c-0.1,0.4-0.5,0.7-0.9,0.7h-2.8
		c-0.2,0-0.4-0.1-0.5-0.2c-0.1-0.1-0.2-0.3-0.1-0.5c0.1-0.4,0.5-0.7,0.9-0.7h2.8c0.2,0,0.4,0.1,0.5,0.2
		C34.8,51.2,34.8,51.4,34.8,51.6z M35.4,48.8c-0.1,0.4-0.5,0.7-0.9,0.7h-2.8c-0.2,0-0.4-0.1-0.5-0.2C31,49.1,31,48.9,31,48.7
		c0.1-0.4,0.5-0.7,0.9-0.7h2.8c0.2,0,0.4,0.1,0.5,0.2C35.4,48.4,35.4,48.6,35.4,48.8z M42.2,51.6c-0.1,0.4-0.4,0.7-0.8,0.7h-3
		c-0.2,0-0.3-0.1-0.4-0.2c-0.1-0.1-0.2-0.3-0.1-0.5c0.1-0.4,0.4-0.7,0.8-0.7h3c0.2,0,0.3,0.1,0.4,0.2C42.2,51.2,42.3,51.4,42.2,51.6
		z M42.8,48.8c-0.1,0.4-0.4,0.7-0.8,0.7h-3c-0.2,0-0.3-0.1-0.4-0.2c-0.1-0.1-0.2-0.3-0.1-0.5c0.1-0.4,0.4-0.7,0.8-0.7h3
		c0.2,0,0.3,0.1,0.4,0.2C42.8,48.4,42.9,48.6,42.8,48.8z"/>
	<path class="st4" d="M45.4,41.8H31.8c-0.7,0-1.3,0.5-1.5,1.1L30,44.5c0,0.3,0,0.5,0.2,0.7c0.2,0.2,0.5,0.3,0.8,0.3h13.6
		c0.7,0,1.3-0.5,1.5-1.1l0.3-1.6c0-0.3,0-0.5-0.2-0.7C46,41.9,45.7,41.8,45.4,41.8z M43.4,43.7c-0.1,0.3-0.4,0.5-0.7,0.5h-9.2
		c-0.2,0-0.3-0.1-0.4-0.2C33,44,32.9,43.8,33,43.7c0.1-0.3,0.4-0.5,0.7-0.5h9.2c0.2,0,0.3,0.1,0.4,0.2
		C43.4,43.4,43.4,43.6,43.4,43.7z"/>
	<path class="st4" d="M48,37.1h-7.2V37c0.1-0.4,0-0.7-0.2-0.9c-0.2-0.3-0.6-0.4-1.1-0.4c-0.9,0-1.7,0.7-1.9,1.4v0.1h-0.1h-7.1
		c-0.9,0-1.7,0.6-1.8,1.4l-0.1,0.4c-0.1,0.3,0,0.6,0.2,0.9s0.5,0.4,0.9,0.4c0.8,0,1.5-0.6,1.7-1.3l0.1-0.4h15l-0.1,0.4
		c-0.1,0.3,0,0.6,0.2,0.9s0.5,0.4,0.9,0.4c0.8,0,1.5-0.6,1.7-1.3l0.1-0.4c0.1-0.3,0-0.7-0.2-0.9C48.8,37.3,48.4,37.1,48,37.1z"/>
	<path class="st4" d="M54,39c0.7-0.1,1.3-0.7,1.4-1.3l0.1-0.3c0.1-0.3,0-0.7-0.2-0.9c-0.2-0.2-0.5-0.4-0.9-0.4
		c-0.8,0-1.5,0.6-1.7,1.3l-0.1,0.3c-0.1,0.4,0,0.7,0.2,0.9C53.2,39,53.6,39.1,54,39z"/>
	<path class="st4" d="M68.9,51.9H53.2l2.2-10.6c0-0.3,0-0.5-0.2-0.7c-0.2-0.2-0.4-0.3-0.7-0.3H52c-0.4,0-0.9,0.3-0.9,0.7
		c0,0.2,0,0.4,0.1,0.5c0.1,0.1,0.3,0.2,0.5,0.2h0.9l-2.2,10.2h-0.2c-0.4,0-0.9,0.3-0.9,0.7c0,0.2,0,0.4,0.1,0.5
		c0.1,0.1,0.3,0.2,0.5,0.2h18.7c0.3,0,0.6-0.2,0.8-0.4c0.2-0.2,0.2-0.5,0.1-0.7C69.4,52,69.2,51.9,68.9,51.9z"/>
	<path class="st4" d="M71.8,38.6h-8.2l0.8-1.1c0.3-0.4,0.3-0.8,0.2-1.1s-0.5-0.5-0.9-0.5c-0.5,0-1,0.2-1.3,0.7l-1.5,2.1H58
		c-0.4,0-0.9,0.3-0.9,0.7c0,0.2,0,0.4,0.1,0.5c0.1,0.1,0.3,0.2,0.5,0.2h2.2l-2.5,3.4c-0.3,0.4-0.3,0.8-0.2,1.2
		c0.2,0.3,0.5,0.5,0.9,0.5h4.6l-0.4,2H56c-0.4,0-0.9,0.3-0.9,0.7c0,0.2,0,0.4,0.1,0.5c0.1,0.1,0.3,0.2,0.5,0.2h6.3l-0.3,1.3
		c-0.1,0.3,0,0.7,0.2,0.9c0.2,0.2,0.5,0.4,0.9,0.4c0.8,0,1.5-0.6,1.7-1.3l0.2-1.2H69c0.3,0,0.6-0.2,0.8-0.4c0.2-0.2,0.2-0.5,0.1-0.7
		c-0.1-0.2-0.3-0.3-0.5-0.3h-4.4l0.4-2h3.5c0.3,0,0.6-0.2,0.8-0.4c0.2-0.2,0.2-0.5,0.1-0.7c-0.1-0.2-0.3-0.3-0.5-0.3h-3.6l0-0.2
		c0.1-0.3,0-0.7-0.2-0.9c-0.2-0.2-0.5-0.4-0.9-0.4c-0.8,0-1.5,0.6-1.7,1.3l0,0.2h-3.1l2.7-3.7h8.9c0.3,0,0.6-0.2,0.8-0.4
		c0.2-0.2,0.2-0.5,0.1-0.7C72.2,38.7,72,38.6,71.8,38.6z"/>
	<g>
		<path class="st4" d="M95,36.3c-0.2-0.2-0.5-0.4-0.9-0.4H77.8c-0.7,0-1.4,0.5-1.5,1.2L73,52c-0.1,0.3,0,0.7,0.2,0.9
			c0.2,0.2,0.6,0.4,1,0.4c0.8,0,1.6-0.6,1.7-1.3l2.9-13.7c0.1-0.5,0.7-1,1.3-1h11c0.3,0,0.6,0.1,0.7,0.3c0.2,0.2,0.2,0.4,0.2,0.7
			l-2.9,13.5h-0.7c-0.5,0-0.9,0.4-1,0.8c0,0.2,0,0.4,0.1,0.5c0.1,0.2,0.3,0.2,0.5,0.2h2.4c0.7,0,1.3-0.5,1.4-1.1l3.2-15.2
			C95.2,36.8,95.2,36.5,95,36.3z"/>
		<path class="st4" d="M82.3,44.2L82.3,44.2l2.1-3.1c0.2-0.2,0.2-0.6,0.2-0.8c0-0.2-0.2-0.3-0.3-0.4c-0.1,0-0.2-0.1-0.4-0.1
			c-0.4,0-0.7,0.2-1,0.6L81.7,42l-0.4-1.7c0-0.2-0.2-0.4-0.4-0.4c-0.1,0-0.2-0.1-0.4-0.1c-0.1,0-0.3,0-0.4,0.1
			c-0.5,0.2-0.9,0.8-0.7,1.3l0.8,3.1l0,0l0,0l-2.1,3.1c-0.2,0.2-0.2,0.6-0.2,0.8c0,0.2,0.2,0.3,0.3,0.4c0.4,0.2,1,0,1.3-0.5l1.1-1.7
			l0,0l0.4,1.7c0,0.2,0.2,0.4,0.4,0.4c0.2,0.1,0.5,0.1,0.8,0c0.5-0.2,0.9-0.8,0.7-1.3L82.3,44.2z"/>
		<path class="st4" d="M88.2,48.5c0.5-0.2,0.9-0.8,0.7-1.3l-0.7-2.8l0-0.2l0-0.2l0.2-0.2l1.9-2.8c0.2-0.2,0.2-0.6,0.2-0.8
			c0-0.2-0.2-0.3-0.3-0.4c-0.1,0-0.2-0.1-0.4-0.1c-0.4,0-0.7,0.2-1,0.6l-1,1.5l0,0L87.5,42l0-0.2l0-0.2l-0.4-1.5
			c0-0.2-0.2-0.4-0.4-0.4c-0.1,0-0.2-0.1-0.4-0.1c-0.1,0-0.3,0-0.4,0.1c-0.5,0.2-0.9,0.8-0.7,1.3l0.7,2.8l0,0.2l0,0.2l-2.1,3.1
			c-0.2,0.2-0.2,0.6-0.2,0.8c0,0.2,0.2,0.3,0.3,0.4c0.4,0.2,1,0,1.3-0.5l1.1-1.7l0,0l0,0.2l0,0.2l0.4,1.5c0,0.2,0.2,0.4,0.4,0.4
			C87.6,48.6,87.9,48.6,88.2,48.5z"/>
	</g>
</g>
</svg>
