<?xml version="1.0" encoding="utf-8"?>
<!-- Generator: Adobe Illustrator 21.1.0, SVG Export Plug-In . SVG Version: 6.00 Build 0)  -->
<svg version="1.1" id="圖層_3" xmlns="http://www.w3.org/2000/svg" xmlns:xlink="http://www.w3.org/1999/xlink" x="0px" y="0px"
	 viewBox="0 0 472.2 219" style="enable-background:new 0 0 472.2 219;" xml:space="preserve">
<style type="text/css">
	.st0{fill:#FDFDFF;}
	.st1{fill:#FDFDFF;stroke:#FFFFFF;stroke-width:0.2147;stroke-miterlimit:10;}
	.st2{fill:#FFFFFF;}
	.st3{fill:#FFEA00;}
	.st4{fill:#008CD6;}
</style>
<g>
	<path class="st0" d="M18.1,143.8l7.1-0.6c0.3,0.9,0.7,1.9,1.1,3.2h15.8v9.7h-5.6v-5.6H8.5v5.6H2.9v-9.7h16.3
		C18.8,145.4,18.4,144.6,18.1,143.8z M4.7,168.6h35.4v16.5h-5.6v-1.7H10.3v1.7H4.7V168.6z M8.1,157.7h28.6v9H8.1V157.7z M35.4,156
		H9.5v-3.6h25.9V156z M10.3,174.2h9.3v-2.1h-9.3V174.2z M10.3,179.8h9.3v-2.1h-9.3V179.8z M31,161.3H13.8v1.9H31V161.3z M34.5,172.1
		h-9.3v2.1h9.3V172.1z M25.2,179.8h9.3v-2.1h-9.3V179.8z"/>
	<path class="st0" d="M86.4,178.3l-1.9,5.6c-3.7,0.1-7.2,0.1-10.6,0.1c-7.7,0-12.2-0.1-13.6-0.3c-1.3-0.2-2.7-0.6-4-1.1
		c-1.4-0.5-2.7-1.4-4.1-2.6l-4.9,5l-2.4-6.4l4.2-3.6v-10.6h-3.9v-5.3h9.4V175c2.2,2.4,5.7,3.6,10.5,3.6
		C75.2,178.6,82.2,178.5,86.4,178.3z M50.8,144.1c2.1,2.7,4,5.3,5.7,7.7l-4.9,3.3c-1.7-2.9-3.4-5.7-5.3-8.3L50.8,144.1z M56.5,168.4
		h13.1v-4h-12v-4.5c1.3-2.2,2.6-4.7,3.8-7.3h-4.1v-5h6.1c0.6-1.4,1.1-2.9,1.6-4.5l6.1,0.9c-0.4,1.1-0.9,2.3-1.5,3.5h14.9v5H67.5
		c-1,2.2-2.2,4.5-3.4,6.9h5.6v-5.3h5.6v5.3h9v5h-9v4h10.3v5H75.3v4.7h-5.6v-4.7H56.5V168.4z"/>
	<path class="st0" d="M99,151.9l3.7,7.6c1.1-2.5,2.2-5.1,3.1-7.8l2.8,1.3l2.3-1l3.4,7.4c1.1-2.5,2.1-5.1,3-7.8l4.5,1.9
		c-1.4,4.2-3,8.2-4.7,12.1l4.4,9.8l-4.8,2.4l-2.5-6.1c-1.4,2.7-2.8,5.3-4.3,7.8c-0.6-0.5-1.3-1-1.9-1.4l-2.3,1.1l-3.3-7.7
		c-1.6,3-3.3,5.9-5.1,8.5c-0.7-0.7-1.6-1.4-2.6-2.2v7h-5.6v-39.6h38.2v32.3c0,2.2-0.4,3.8-1.2,5c-0.8,1.2-2,1.9-3.5,2
		c-1.5,0.2-4.3,0.3-8.4,0.3c-0.4-2.3-0.8-4.2-1.3-5.9c2,0.2,4,0.3,6.1,0.3c1.8,0,2.7-0.9,2.7-2.6v-26.2H95v3.7L99,151.9z M95,154.8
		V174c1.8-2.7,3.4-5.6,4.9-8.7C98.3,161.7,96.7,158.2,95,154.8z M108.6,158.5c-1,2.5-2,4.9-3.1,7.1l2.9,6.3c1.1-2.1,2.2-4.2,3.2-6.4
		L108.6,158.5z"/>
	<path class="st0" d="M131.8,181.7l-1.1-6.3l3.7-1V160h-3v-5.8h3v-10.4h5.5v10.4h2.6v5.8h-2.6v12.7c1.2-0.4,2.4-0.7,3.7-1.1
		c-0.1,1-0.1,2-0.1,3c0,1,0,2,0.1,3C140.1,178.7,136.2,180.1,131.8,181.7z M152.4,143.3c1,1.6,2,3.1,2.9,4.6h4.3l2.7-4.7l5.3,1.7
		l-2.3,2.9h5.6v16.2h-27v-16.2h5.7c-0.6-0.9-1.2-1.9-1.9-2.9L152.4,143.3z M145.7,184.9V166H169v18.9h-5.3v-1.7h-12.6v1.7H145.7z
		 M148.6,159.8h6.5v-7.6h-6.5V159.8z M151.8,152.8c0.8,1.4,1.8,3.1,2.7,5c-1.2,0.6-2.3,1.2-3.1,1.7c-0.9-1.9-1.8-3.6-2.6-5
		L151.8,152.8z M163.7,170.2h-12.6v2.5h12.6V170.2z M151.1,179.1h12.6v-2.5h-12.6V179.1z M166.2,159.8v-7.6h-6.5v7.6H166.2z
		 M162.9,152.8l2.9,1.6c-1,1.9-1.9,3.6-2.8,5.1c-1-0.6-2-1.2-2.9-1.6C161.2,156,162.1,154.3,162.9,152.8z"/>
	<path class="st0" d="M180.7,143.3l5.6,1.5c-1.1,3.4-2.3,6.6-3.6,9.8V185h-5.3v-19.3c-0.8,1.4-1.5,2.7-2.4,4
		c-0.3-2.2-0.8-4.8-1.4-7.9C176.3,156.4,178.7,150.2,180.7,143.3z M184.1,179.2h3.1v-25.1h9.8v-2.5h-10.8V147H197v-3.2h5.6v3.2h12.1
		v4.7h-12.1v2.5h10.1v25.1h2.9v4.7h-31.5V179.2z M207.4,158.4h-14.9v2.2h14.9V158.4z M192.5,166.8h14.9v-2.2h-14.9V166.8z
		 M192.5,173h14.9v-2.2h-14.9V173z M192.5,179.2h14.9V177h-14.9V179.2z"/>
	<path class="st0" d="M220.6,185.1c-1.2-1.8-2.5-3.4-3.9-4.8c1.1-2.2,1.7-4.7,2.1-7.4c0.3-2.7,0.5-7.2,0.5-13.4v-14.3H233v34
		c0,1.6-0.4,2.8-1.2,3.8c-0.8,1-3.1,1.5-6.8,1.5c-0.4-2-0.9-4-1.5-5.7c0.9,0.1,1.8,0.2,2.6,0.2c1.3,0,2-0.8,2-2.4v-5.2h-3.8
		C224,177.4,222.8,182,220.6,185.1z M224.3,166.3h3.7v-5.4h-3.6C224.4,162.8,224.4,164.6,224.3,166.3z M228,150.5h-3.6v5.4h3.6
		V150.5z M257.5,160.1v4.8c-1.1,4-2.7,7.6-4.7,10.7c1.7,1.4,3.7,2.5,5.9,3.4c-1.1,1.6-2.3,3.5-3.5,5.6c-2.2-1.3-4.2-2.8-6-4.5
		c-1.8,1.8-3.8,3.4-6,4.8c-0.7-1.5-1.6-3-2.5-4.4v4.1h-5.4v-39.6H257c0,4.3-0.1,7.1-0.4,8.4s-0.8,2.3-1.5,3.1s-1.6,1.2-2.6,1.4
		s-3.8,0.3-8.4,0.2c-0.3-1.7-0.6-3.4-1.1-5.1c2.4,0.2,4.2,0.3,5.4,0.3c0.8,0,1.4-0.2,1.9-0.5c0.5-0.3,0.7-1.3,0.7-2.8h-10.4v10.1
		H257.5z M245.7,165.4c0.8,2.3,1.9,4.4,3.2,6.2c1.3-1.9,2.3-4.1,3-6.5h-11.3v13.9c1.8-0.9,3.3-2,4.7-3.3c-1.7-2.5-3.2-5.3-4.4-8.4
		L245.7,165.4z"/>
	<path class="st0" d="M275.1,163.7h6c-0.1,1.3-0.3,2.7-0.6,4h17.8l-0.7,9.6c-0.1,1.6-0.6,2.9-1.4,4c-0.8,1-1.9,1.8-3.3,2.3
		c-1.4,0.5-4.1,0.7-8.2,0.7c-1.4,0-2.9,0-4.4-0.1c-0.3-1.7-0.7-3.5-1.3-5.7c3.1,0.3,5.8,0.4,8.1,0.4c1.2,0,2.1-0.2,2.8-0.5
		c0.7-0.4,1.1-0.9,1.3-1.5c0.2-0.7,0.3-2,0.4-4h-12.3c-2.1,5.9-7.3,10-15.5,12.2c-1.1-1.5-2.4-3.1-4-4.8c6.4-1.5,10.7-4,12.8-7.4
		h-11.4v-5.1h13.1C274.7,166.5,275,165.1,275.1,163.7z M298.1,147v4.5c-2.7,2.6-5.9,4.8-9.7,6.8c4,0.9,8.4,1.4,13.2,1.5
		c-0.9,2.1-1.6,3.9-2.3,5.6c-7.2-0.7-13.3-2-18.5-3.9c-5.4,1.9-11.7,3.4-18.7,4.4c-0.6-1.5-1.3-3.2-2.3-5.3c5.2-0.5,10-1.3,14.2-2.3
		c-2-1.2-3.7-2.5-5.2-4c-1.6,1.3-3.4,2.6-5.2,3.7c-1-1.3-2.1-2.7-3.4-4.2c5.4-3.1,9.5-6.6,12.2-10.4h6.4c-0.8,1.2-1.7,2.4-2.6,3.6
		H298.1z M281.2,156.1c3.2-1.2,6.1-2.7,8.5-4.4h-16.4C275.6,153.4,278.2,154.9,281.2,156.1z"/>
	<path class="st1" d="M313.6,172.3l2.7,2.1c-3.6,3.2-7.4,6.3-11.3,9.3c-0.7-0.8-1.4-1.7-2.3-2.6C306.4,178.7,310,175.8,313.6,172.3z
		 M332.5,160.7c3.6,2.9,7.3,6.1,11,9.5c-0.9,0.9-1.8,1.8-2.6,2.6c-1.2-1.1-2.3-2.3-3.5-3.4c-3.7,0.2-7.6,0.3-11.5,0.5v9.5
		c0,3.2-1.7,4.8-5,4.8c-1.4,0-3.2,0-5.4-0.1c-0.1-1-0.3-2.2-0.5-3.4c2.4,0.3,4.2,0.4,5.4,0.4c1.5,0,2.3-0.8,2.3-2.3v-8.7
		c-3.4,0.2-6.9,0.4-10.4,0.6c-1.6,0.1-3.2,0.3-4.8,0.5l-1.4-3.6c1.8-0.3,3.6-0.9,5.3-1.6c4.3-2.1,8.3-4.2,11.9-6.3
		c-4.9,0.4-9,0.7-12.3,1c-1.5,0.1-2.6,0.3-3.3,0.5l-1.3-3.5c1.3-0.3,2.6-0.8,3.8-1.5c3.5-2,7-4.3,10.6-7c-4.8,0.3-9.7,0.6-14.6,0.8
		c-0.2-1-0.4-2-0.8-2.9c13.4-0.5,25.2-1.3,35.6-2.3l0.6,3c-6.1,0.5-12.3,1-18.5,1.4l1.7,1.2c-4.4,2.9-8.5,5.4-12.2,7.4
		c6.3-0.4,11.5-0.7,15.6-1c2.8-1.8,5.4-3.6,7.8-5.4l2.7,2.2c-7,5-15.2,9.7-24.5,14.1c5.6-0.2,12.3-0.5,20.3-0.9
		c-1.4-1.3-2.8-2.6-4.2-3.8L332.5,160.7z M330.1,174.5l2.1-2.3c3.5,2.4,7.4,5.2,11.6,8.5l-2.5,2.7
		C337.4,180.2,333.7,177.2,330.1,174.5z"/>
	<path class="st1" d="M345.9,177.7c4.7-0.9,9.5-1.9,14.4-3c-0.1,1.5-0.2,2.5-0.2,3c-5.1,1.1-9.5,2.2-13.3,3.2L345.9,177.7z
		 M351.4,168.9c2.2-0.3,5.1-0.7,8.6-1.3c-0.2,1.1-0.3,2.2-0.4,3.1c-3.5,0.5-7.5,1.1-12,1.8l-0.7-3c1.8-1.8,3.8-4.7,6.2-8.8
		c-2.9,0.2-5,0.3-6.3,0.4l-0.8-2.9c2.5-3.3,5.1-8.2,8-14.9l3.2,1.3c-2.7,5.3-5.2,9.8-7.4,13.4c1.8,0,3.5-0.1,5-0.1
		c0.8-1.5,1.7-3.1,2.6-4.9l3.2,1.4C357.3,160.1,354.3,164.9,351.4,168.9z M379.7,154.7c2.4,3.2,4.8,6.7,7.2,10.7
		c-1,0.6-2,1.2-3.1,1.9c-0.7-1.2-1.4-2.3-2-3.4c-1.3,0.1-2.6,0.2-4,0.2v14.3c0,1.7,0.6,2.6,1.9,2.6h2.1c1.4,0,2.2-0.7,2.4-2.1
		c0.2-1.7,0.4-3.5,0.4-5.5c0.9,0.4,2,0.8,3.4,1.2c-0.2,2.4-0.5,4.3-0.7,5.7c-0.4,2.4-1.9,3.7-4.4,3.7h-3.6c-3.1,0-4.6-1.8-4.6-5.3
		v-14.4c-1.6,0.1-3.2,0.2-4.9,0.3c-0.2,6.1-1,10.4-2.4,12.8c-1.6,3.1-4.6,5.6-9,7.7c-0.6-0.9-1.3-1.8-2.1-2.8
		c4.1-1.7,6.8-3.8,8.2-6.5c1.3-2.1,1.9-5.8,2-10.9c-0.6,0-1.2,0.1-1.7,0.1c-1.2,0.1-2.3,0.3-3.4,0.5l-1.4-3.3c1.2-0.5,2.2-1.2,2.9-2
		c2.1-2.5,4.1-5.2,5.9-8.2h-9.2v-3h13.4c-1.1-1.6-2-3-3-4.3l2.8-1.7c1.1,1.3,2.3,2.9,3.6,4.7l-2,1.3h12.8v3H370l2.3,1
		c-2.3,3.1-4.6,6-6.9,8.7c5.3-0.2,10.1-0.4,14.6-0.6c-1.1-1.7-2.1-3.3-3-4.7L379.7,154.7z"/>
	<path class="st1" d="M400.7,145.9l2.8-2c3.1,1.9,6.6,6.9,10.3,14.9c5.2,11.5,10.9,18.5,17.1,21l-2.9,3.7c-6.1-3.6-11.8-11.3-17-23
		c-0.4-0.9-0.8-1.8-1.2-2.7c-3.3,11.1-9.3,19.8-18.1,26c-0.8-1.1-1.6-2.2-2.6-3.2c9.1-5.7,15.2-14.8,18.4-27.2
		C405.2,149.8,403,147.3,400.7,145.9z"/>
	<path class="st1" d="M436.3,147.7h33.4v35.4h-3.6V179h-26.2v4.1h-3.6V147.7z M466.1,175.9v-25h-26.2v25H466.1z"/>
</g>
<g>
	<path class="st2" d="M2.5,218.4v-21.5h14.7v3.6H6.9v5.1h9v3.6h-9v9.1H2.5z"/>
	<path class="st2" d="M20.5,218.4v-21.5h4.1v21.5H20.5z"/>
	<path class="st2" d="M42.7,218.4h-4.1v-7.9c0-1.7-0.1-2.8-0.3-3.3c-0.2-0.5-0.5-0.9-0.9-1.1c-0.4-0.3-0.9-0.4-1.4-0.4
		c-0.7,0-1.4,0.2-1.9,0.6c-0.6,0.4-1,0.9-1.2,1.6c-0.2,0.6-0.3,1.8-0.3,3.6v7h-4.1v-15.5h3.8v2.3c1.4-1.8,3.1-2.6,5.1-2.6
		c0.9,0,1.7,0.2,2.5,0.5c0.8,0.3,1.3,0.7,1.7,1.3c0.4,0.5,0.7,1.1,0.8,1.7c0.2,0.6,0.2,1.6,0.2,2.8V218.4z"/>
	<path class="st2" d="M55.5,213.4l4.1,0.7c-0.5,1.5-1.4,2.6-2.5,3.4c-1.1,0.8-2.6,1.2-4.3,1.2c-2.7,0-4.7-0.9-6-2.6
		c-1-1.4-1.5-3.2-1.5-5.4c0-2.6,0.7-4.6,2-6.1c1.3-1.5,3-2.2,5.1-2.2c2.3,0,4.1,0.8,5.5,2.3c1.3,1.5,2,3.9,1.9,7H49.5
		c0,1.2,0.4,2.2,1,2.8c0.6,0.7,1.4,1,2.4,1c0.6,0,1.2-0.2,1.6-0.5C55,214.8,55.3,214.2,55.5,213.4z M55.8,209.3
		c0-1.2-0.3-2.1-0.9-2.7c-0.6-0.6-1.3-0.9-2.1-0.9c-0.9,0-1.6,0.3-2.2,1c-0.6,0.7-0.9,1.5-0.9,2.7H55.8z"/>
	<path class="st2" d="M70,202.8v3.3h-2.8v6.3c0,1.3,0,2,0.1,2.2c0.1,0.2,0.2,0.4,0.4,0.5s0.4,0.2,0.7,0.2c0.4,0,0.9-0.1,1.7-0.4
		l0.4,3.2c-1,0.4-2,0.6-3.2,0.6c-0.7,0-1.4-0.1-2-0.4c-0.6-0.2-1-0.6-1.3-1c-0.3-0.4-0.5-0.9-0.6-1.6c-0.1-0.5-0.1-1.4-0.1-2.9v-6.8
		h-1.9v-3.3h1.9v-3.1l4.1-2.4v5.5H70z"/>
	<path class="st2" d="M86.1,218.4l-7.7-21.5h4.7l5.4,15.9l5.3-15.9h4.6l-7.7,21.5H86.1z"/>
	<path class="st2" d="M101.7,207.6l-3.7-0.7c0.4-1.5,1.1-2.6,2.2-3.3s2.5-1.1,4.6-1.1c1.8,0,3.2,0.2,4.1,0.7c0.9,0.4,1.5,1,1.9,1.7
		c0.4,0.7,0.5,1.9,0.5,3.7l0,4.8c0,1.4,0.1,2.4,0.2,3c0.1,0.6,0.4,1.3,0.7,2.1h-4.1c-0.1-0.3-0.2-0.7-0.4-1.2
		c-0.1-0.2-0.1-0.4-0.1-0.5c-0.7,0.7-1.5,1.2-2.3,1.5c-0.8,0.3-1.7,0.5-2.6,0.5c-1.6,0-2.9-0.4-3.8-1.3s-1.4-2-1.4-3.3
		c0-0.9,0.2-1.7,0.6-2.3c0.4-0.7,1-1.2,1.8-1.6c0.8-0.4,1.8-0.7,3.3-1c1.9-0.4,3.3-0.7,4-1v-0.4c0-0.8-0.2-1.4-0.6-1.7
		c-0.4-0.3-1.1-0.5-2.2-0.5c-0.7,0-1.3,0.1-1.7,0.4C102.3,206.3,102,206.8,101.7,207.6z M107.2,210.9c-0.5,0.2-1.4,0.4-2.5,0.6
		c-1.1,0.2-1.9,0.5-2.2,0.7c-0.5,0.4-0.8,0.9-0.8,1.4c0,0.6,0.2,1.1,0.6,1.5c0.4,0.4,1,0.6,1.6,0.6c0.7,0,1.4-0.2,2.1-0.7
		c0.5-0.4,0.8-0.8,1-1.4c0.1-0.4,0.2-1,0.2-2V210.9z"/>
	<path class="st2" d="M115,218.4v-21.5h4.1v21.5H115z"/>
	<path class="st2" d="M133.3,218.4V216c-0.6,0.8-1.3,1.5-2.2,2c-0.9,0.5-1.9,0.7-2.9,0.7c-1,0-2-0.2-2.8-0.7
		c-0.8-0.5-1.4-1.1-1.8-1.9c-0.4-0.8-0.6-2-0.6-3.4v-9.8h4.1v7.1c0,2.2,0.1,3.5,0.2,4c0.2,0.5,0.4,0.9,0.8,1.2s0.9,0.4,1.5,0.4
		c0.7,0,1.3-0.2,1.9-0.6c0.6-0.4,0.9-0.9,1.1-1.4c0.2-0.6,0.3-2,0.3-4.2v-6.6h4.1v15.5H133.3z"/>
	<path class="st2" d="M150,213.4l4.1,0.7c-0.5,1.5-1.4,2.6-2.5,3.4c-1.1,0.8-2.6,1.2-4.3,1.2c-2.7,0-4.7-0.9-6-2.6
		c-1-1.4-1.5-3.2-1.5-5.4c0-2.6,0.7-4.6,2-6.1c1.3-1.5,3-2.2,5.1-2.2c2.3,0,4.1,0.8,5.5,2.3c1.3,1.5,2,3.9,1.9,7H144
		c0,1.2,0.4,2.2,1,2.8c0.6,0.7,1.4,1,2.4,1c0.6,0,1.2-0.2,1.6-0.5C149.5,214.8,149.8,214.2,150,213.4z M150.3,209.3
		c0-1.2-0.3-2.1-0.9-2.7c-0.6-0.6-1.3-0.9-2.1-0.9c-0.9,0-1.6,0.3-2.2,1c-0.6,0.7-0.9,1.5-0.9,2.7H150.3z"/>
	<path class="st2" d="M156.9,212.6v-4.1h8.1v4.1H156.9z"/>
	<path class="st2" d="M170.1,207.6l-3.7-0.7c0.4-1.5,1.1-2.6,2.2-3.3s2.5-1.1,4.6-1.1c1.8,0,3.2,0.2,4.1,0.7c0.9,0.4,1.5,1,1.9,1.7
		c0.4,0.7,0.5,1.9,0.5,3.7l0,4.8c0,1.4,0.1,2.4,0.2,3c0.1,0.6,0.4,1.3,0.7,2.1h-4.1c-0.1-0.3-0.2-0.7-0.4-1.2
		c-0.1-0.2-0.1-0.4-0.1-0.5c-0.7,0.7-1.5,1.2-2.3,1.5c-0.8,0.3-1.7,0.5-2.6,0.5c-1.6,0-2.9-0.4-3.8-1.3s-1.4-2-1.4-3.3
		c0-0.9,0.2-1.7,0.6-2.3c0.4-0.7,1-1.2,1.8-1.6c0.8-0.4,1.8-0.7,3.3-1c1.9-0.4,3.3-0.7,4-1v-0.4c0-0.8-0.2-1.4-0.6-1.7
		c-0.4-0.3-1.1-0.5-2.2-0.5c-0.7,0-1.3,0.1-1.7,0.4C170.7,206.3,170.4,206.8,170.1,207.6z M175.7,210.9c-0.5,0.2-1.4,0.4-2.5,0.6
		c-1.1,0.2-1.9,0.5-2.2,0.7c-0.5,0.4-0.8,0.9-0.8,1.4c0,0.6,0.2,1.1,0.6,1.5c0.4,0.4,1,0.6,1.6,0.6c0.7,0,1.4-0.2,2.1-0.7
		c0.5-0.4,0.8-0.8,1-1.4c0.1-0.4,0.2-1,0.2-2V210.9z"/>
	<path class="st2" d="M197.7,218.4h-3.8v-2.3c-0.6,0.9-1.4,1.5-2.2,2c-0.9,0.4-1.7,0.7-2.6,0.7c-1.8,0-3.3-0.7-4.6-2.2
		c-1.3-1.4-1.9-3.4-1.9-6c0-2.6,0.6-4.6,1.9-6c1.2-1.4,2.8-2.1,4.7-2.1c1.7,0,3.2,0.7,4.5,2.2v-7.7h4.1V218.4z M186.7,210.3
		c0,1.7,0.2,2.9,0.7,3.6c0.7,1.1,1.6,1.6,2.8,1.6c0.9,0,1.8-0.4,2.4-1.2c0.7-0.8,1-2,1-3.6c0-1.8-0.3-3.1-1-3.9
		c-0.6-0.8-1.5-1.2-2.5-1.2c-1,0-1.8,0.4-2.5,1.2S186.7,208.7,186.7,210.3z"/>
	<path class="st2" d="M215.7,218.4h-3.8v-2.3c-0.6,0.9-1.4,1.5-2.2,2c-0.9,0.4-1.7,0.7-2.6,0.7c-1.8,0-3.3-0.7-4.6-2.2
		c-1.3-1.4-1.9-3.4-1.9-6c0-2.6,0.6-4.6,1.9-6c1.2-1.4,2.8-2.1,4.7-2.1c1.7,0,3.2,0.7,4.5,2.2v-7.7h4.1V218.4z M204.7,210.3
		c0,1.7,0.2,2.9,0.7,3.6c0.7,1.1,1.6,1.6,2.8,1.6c0.9,0,1.8-0.4,2.4-1.2c0.7-0.8,1-2,1-3.6c0-1.8-0.3-3.1-1-3.9
		c-0.6-0.8-1.5-1.2-2.5-1.2c-1,0-1.8,0.4-2.5,1.2S204.7,208.7,204.7,210.3z"/>
	<path class="st2" d="M228.5,213.4l4.1,0.7c-0.5,1.5-1.4,2.6-2.5,3.4c-1.1,0.8-2.6,1.2-4.3,1.2c-2.7,0-4.7-0.9-6-2.6
		c-1-1.4-1.5-3.2-1.5-5.4c0-2.6,0.7-4.6,2-6.1c1.3-1.5,3-2.2,5.1-2.2c2.3,0,4.1,0.8,5.5,2.3c1.3,1.5,2,3.9,1.9,7h-10.3
		c0,1.2,0.4,2.2,1,2.8c0.6,0.7,1.4,1,2.4,1c0.6,0,1.2-0.2,1.6-0.5C227.9,214.8,228.2,214.2,228.5,213.4z M228.7,209.3
		c0-1.2-0.3-2.1-0.9-2.7c-0.6-0.6-1.3-0.9-2.1-0.9c-0.9,0-1.6,0.3-2.2,1c-0.6,0.7-0.9,1.5-0.9,2.7H228.7z"/>
	<path class="st2" d="M250.1,218.4h-3.8v-2.3c-0.6,0.9-1.4,1.5-2.2,2c-0.9,0.4-1.7,0.7-2.6,0.7c-1.8,0-3.3-0.7-4.6-2.2
		c-1.3-1.4-1.9-3.4-1.9-6c0-2.6,0.6-4.6,1.9-6c1.2-1.4,2.8-2.1,4.7-2.1c1.7,0,3.2,0.7,4.5,2.2v-7.7h4.1V218.4z M239.1,210.3
		c0,1.7,0.2,2.9,0.7,3.6c0.7,1.1,1.6,1.6,2.8,1.6c0.9,0,1.8-0.4,2.4-1.2c0.7-0.8,1-2,1-3.6c0-1.8-0.3-3.1-1-3.9
		c-0.6-0.8-1.5-1.2-2.5-1.2c-1,0-1.8,0.4-2.5,1.2C239.4,207.6,239.1,208.7,239.1,210.3z"/>
	<path class="st2" d="M260.8,211.4l4.2-0.4c0.3,1.4,0.8,2.5,1.5,3.1c0.8,0.7,1.8,1,3.1,1c1.4,0,2.4-0.3,3.2-0.9
		c0.7-0.6,1.1-1.3,1.1-2.1c0-0.5-0.1-0.9-0.4-1.3c-0.3-0.4-0.8-0.7-1.6-0.9c-0.5-0.2-1.7-0.5-3.5-0.9c-2.3-0.6-4-1.3-4.9-2.1
		c-1.3-1.2-2-2.6-2-4.3c0-1.1,0.3-2.1,0.9-3.1c0.6-1,1.5-1.7,2.7-2.2c1.2-0.5,2.6-0.7,4.2-0.7c2.7,0,4.7,0.6,6.1,1.8
		c1.4,1.2,2.1,2.8,2.1,4.7l-4.3,0.2c-0.2-1.1-0.6-1.9-1.2-2.4c-0.6-0.5-1.5-0.7-2.7-0.7c-1.3,0-2.2,0.3-3,0.8
		c-0.5,0.3-0.7,0.8-0.7,1.3c0,0.5,0.2,0.9,0.6,1.3c0.5,0.5,1.9,0.9,4,1.4c2.1,0.5,3.7,1,4.7,1.5c1,0.5,1.8,1.3,2.4,2.2
		c0.6,0.9,0.9,2.1,0.9,3.4c0,1.2-0.3,2.4-1,3.5s-1.6,1.9-2.9,2.4s-2.8,0.8-4.7,0.8c-2.7,0-4.8-0.6-6.2-1.9
		C261.9,215.6,261.1,213.8,260.8,211.4z"/>
	<path class="st2" d="M290.5,213.4l4.1,0.7c-0.5,1.5-1.4,2.6-2.5,3.4c-1.1,0.8-2.6,1.2-4.3,1.2c-2.7,0-4.7-0.9-6-2.6
		c-1-1.4-1.5-3.2-1.5-5.4c0-2.6,0.7-4.6,2-6.1c1.3-1.5,3-2.2,5.1-2.2c2.3,0,4.1,0.8,5.5,2.3c1.3,1.5,2,3.9,1.9,7h-10.3
		c0,1.2,0.4,2.2,1,2.8c0.6,0.7,1.4,1,2.4,1c0.6,0,1.2-0.2,1.6-0.5C290,214.8,290.3,214.2,290.5,213.4z M290.8,209.3
		c0-1.2-0.3-2.1-0.9-2.7c-0.6-0.6-1.3-0.9-2.1-0.9c-0.9,0-1.6,0.3-2.2,1c-0.6,0.7-0.9,1.5-0.9,2.7H290.8z"/>
	<path class="st2" d="M301.8,218.4h-4.1v-15.5h3.8v2.2c0.7-1,1.2-1.7,1.8-2.1c0.5-0.3,1.1-0.5,1.8-0.5c0.9,0,1.8,0.3,2.7,0.8
		l-1.3,3.6c-0.7-0.4-1.3-0.7-1.9-0.7c-0.6,0-1.1,0.2-1.5,0.5c-0.4,0.3-0.7,0.9-0.9,1.7c-0.2,0.8-0.3,2.6-0.3,5.2V218.4z"/>
	<path class="st2" d="M313.5,218.4l-6.3-15.5h4.3l2.9,7.9l0.8,2.6c0.2-0.7,0.4-1.1,0.4-1.3c0.1-0.4,0.3-0.9,0.4-1.3l3-7.9h4.2
		l-6.2,15.5H313.5z"/>
	<path class="st2" d="M325.6,200.7v-3.8h4.1v3.8H325.6z M325.6,218.4v-15.5h4.1v15.5H325.6z"/>
	<path class="st2" d="M347.2,207.4l-4.1,0.7c-0.1-0.8-0.4-1.4-0.9-1.8c-0.5-0.4-1.1-0.6-1.9-0.6c-1,0-1.8,0.4-2.5,1.1
		c-0.6,0.7-0.9,1.9-0.9,3.5c0,1.8,0.3,3.1,0.9,3.9c0.6,0.8,1.5,1.1,2.5,1.1c0.8,0,1.4-0.2,1.9-0.7c0.5-0.4,0.8-1.2,1.1-2.3l4,0.7
		c-0.4,1.9-1.2,3.3-2.4,4.2s-2.8,1.4-4.8,1.4c-2.3,0-4.1-0.7-5.4-2.2c-1.4-1.4-2-3.4-2-6c0-2.6,0.7-4.6,2-6c1.4-1.4,3.2-2.1,5.5-2.1
		c1.9,0,3.4,0.4,4.5,1.2C345.9,204.5,346.7,205.8,347.2,207.4z"/>
	<path class="st2" d="M359,213.4l4.1,0.7c-0.5,1.5-1.4,2.6-2.5,3.4c-1.1,0.8-2.6,1.2-4.3,1.2c-2.7,0-4.7-0.9-6-2.6
		c-1-1.4-1.5-3.2-1.5-5.4c0-2.6,0.7-4.6,2-6.1c1.3-1.5,3-2.2,5.1-2.2c2.3,0,4.1,0.8,5.5,2.3c1.3,1.5,2,3.9,1.9,7H353
		c0,1.2,0.4,2.2,1,2.8c0.6,0.7,1.4,1,2.4,1c0.6,0,1.2-0.2,1.6-0.5C358.5,214.8,358.8,214.2,359,213.4z M359.3,209.3
		c0-1.2-0.3-2.1-0.9-2.7c-0.6-0.6-1.3-0.9-2.1-0.9c-0.9,0-1.6,0.3-2.2,1c-0.6,0.7-0.9,1.5-0.9,2.7H359.3z"/>
	<path class="st2" d="M365,213.9l4.1-0.6c0.2,0.8,0.5,1.4,1.1,1.8c0.5,0.4,1.3,0.6,2.3,0.6c1.1,0,1.9-0.2,2.4-0.6
		c0.4-0.3,0.5-0.6,0.5-1.1c0-0.3-0.1-0.6-0.3-0.8c-0.2-0.2-0.7-0.4-1.4-0.5c-3.3-0.7-5.4-1.4-6.3-2c-1.2-0.8-1.8-2-1.8-3.5
		c0-1.3,0.5-2.5,1.6-3.4s2.7-1.4,4.9-1.4c2.1,0,3.7,0.3,4.7,1c1,0.7,1.7,1.7,2.1,3.1l-3.9,0.7c-0.2-0.6-0.5-1.1-0.9-1.4
		c-0.5-0.3-1.1-0.5-2-0.5c-1.1,0-1.9,0.2-2.3,0.5c-0.3,0.2-0.5,0.5-0.5,0.8c0,0.3,0.1,0.5,0.4,0.7c0.4,0.3,1.7,0.7,3.8,1.2
		c2.2,0.5,3.7,1.1,4.6,1.8c0.9,0.7,1.3,1.8,1.3,3.1c0,1.4-0.6,2.6-1.8,3.7c-1.2,1-3,1.5-5.3,1.5c-2.1,0-3.8-0.4-5-1.3
		S365.3,215.4,365,213.9z"/>
	<path class="st2" d="M390.8,218.4v-21.5h7c2.6,0,4.4,0.1,5.2,0.3c1.2,0.3,2.3,1,3.1,2.1s1.2,2.5,1.2,4.2c0,1.3-0.2,2.4-0.7,3.3
		c-0.5,0.9-1.1,1.6-1.8,2.1c-0.7,0.5-1.5,0.9-2.2,1c-1,0.2-2.5,0.3-4.5,0.3h-2.8v8.1H390.8z M395.2,200.5v6.1h2.4
		c1.7,0,2.8-0.1,3.4-0.3c0.6-0.2,1-0.6,1.4-1.1c0.3-0.5,0.5-1,0.5-1.7c0-0.8-0.2-1.4-0.7-1.9c-0.5-0.5-1-0.8-1.7-1
		c-0.5-0.1-1.6-0.1-3.1-0.1H395.2z"/>
	<path class="st2" d="M409.5,210.4c0-1.4,0.3-2.7,1-4c0.7-1.3,1.6-2.3,2.9-2.9s2.6-1,4.1-1c2.4,0,4.3,0.8,5.8,2.3
		c1.5,1.5,2.3,3.5,2.3,5.8c0,2.4-0.8,4.3-2.3,5.8c-1.5,1.5-3.4,2.3-5.7,2.3c-1.4,0-2.8-0.3-4.1-1c-1.3-0.6-2.3-1.6-2.9-2.8
		C409.9,213.7,409.5,212.2,409.5,210.4z M413.7,210.6c0,1.5,0.4,2.7,1.1,3.5c0.7,0.8,1.6,1.2,2.7,1.2s2-0.4,2.7-1.2
		c0.7-0.8,1.1-2,1.1-3.6c0-1.5-0.4-2.7-1.1-3.5c-0.7-0.8-1.6-1.2-2.7-1.2s-2,0.4-2.7,1.2S413.7,209.1,413.7,210.6z"/>
	<path class="st2" d="M432.4,218.4h-4.1v-15.5h3.8v2.2c0.7-1,1.2-1.7,1.8-2.1c0.5-0.3,1.1-0.5,1.8-0.5c0.9,0,1.8,0.3,2.7,0.8
		l-1.3,3.6c-0.7-0.4-1.3-0.7-1.9-0.7c-0.6,0-1.1,0.2-1.5,0.5c-0.4,0.3-0.7,0.9-0.9,1.7c-0.2,0.8-0.3,2.6-0.3,5.2V218.4z"/>
	<path class="st2" d="M447,202.8v3.3h-2.8v6.3c0,1.3,0,2,0.1,2.2s0.2,0.4,0.4,0.5s0.4,0.2,0.7,0.2c0.4,0,0.9-0.1,1.7-0.4l0.4,3.2
		c-1,0.4-2,0.6-3.2,0.6c-0.7,0-1.4-0.1-2-0.4c-0.6-0.2-1-0.6-1.3-1c-0.3-0.4-0.5-0.9-0.6-1.6c-0.1-0.5-0.1-1.4-0.1-2.9v-6.8h-1.9
		v-3.3h1.9v-3.1l4.1-2.4v5.5H447z"/>
	<path class="st2" d="M452.6,207.6l-3.7-0.7c0.4-1.5,1.1-2.6,2.2-3.3s2.5-1.1,4.6-1.1c1.8,0,3.2,0.2,4.1,0.7c0.9,0.4,1.5,1,1.9,1.7
		c0.4,0.7,0.5,1.9,0.5,3.7l0,4.8c0,1.4,0.1,2.4,0.2,3s0.4,1.3,0.7,2.1H459c-0.1-0.3-0.2-0.7-0.4-1.2c-0.1-0.2-0.1-0.4-0.1-0.5
		c-0.7,0.7-1.5,1.2-2.3,1.5c-0.8,0.3-1.7,0.5-2.6,0.5c-1.6,0-2.9-0.4-3.8-1.3s-1.4-2-1.4-3.3c0-0.9,0.2-1.7,0.6-2.3
		c0.4-0.7,1-1.2,1.8-1.6c0.8-0.4,1.8-0.7,3.3-1c1.9-0.4,3.3-0.7,4-1v-0.4c0-0.8-0.2-1.4-0.6-1.7c-0.4-0.3-1.1-0.5-2.2-0.5
		c-0.7,0-1.3,0.1-1.7,0.4C453.2,206.3,452.9,206.8,452.6,207.6z M458.1,210.9c-0.5,0.2-1.4,0.4-2.5,0.6c-1.1,0.2-1.9,0.5-2.2,0.7
		c-0.5,0.4-0.8,0.9-0.8,1.4c0,0.6,0.2,1.1,0.6,1.5c0.4,0.4,1,0.6,1.6,0.6c0.7,0,1.4-0.2,2.1-0.7c0.5-0.4,0.8-0.8,1-1.4
		c0.1-0.4,0.2-1,0.2-2V210.9z"/>
	<path class="st2" d="M465.9,218.4v-21.5h4.1v21.5H465.9z"/>
</g>
<g>
	<path class="st3" d="M236.3,3c-29.8,0.3-53.9,24.3-53.9,54c0,29.6,24.1,53.7,53.9,53.9c29.8-0.3,53.9-24.3,53.9-53.9
		C290.2,27.3,266.1,3.3,236.3,3"/>
	<path class="st4" d="M268.6,70.7c-0.2,0-0.4,0-0.5,0.1l-0.2,0.1l0,0c-9.4,6.1-20.3,9.4-31.7,9.4c-11.4,0-22.3-3.2-31.6-9.4l0,0
		l-0.2-0.1c-0.1-0.1-0.3-0.2-0.5-0.2c-0.5,0-0.9,0.4-0.9,0.9c0,0.2,0.1,0.5,0.2,0.6c8.3,9.6,20.3,15.1,33,15.1
		c12.7,0,24.7-5.5,32.9-15l0,0l0,0c0.2-0.1,0.3-0.4,0.3-0.6C269.5,71.1,269.1,70.7,268.6,70.7z"/>
	<path class="st4" d="M218.1,41.2c0-0.2,0-0.4-0.1-0.5c-0.1-0.1-0.3-0.2-0.5-0.2h-12.6c-0.5,0-1,0.4-1,0.8c0,0.2,0,0.4,0.1,0.5
		c0.1,0.1,0.3,0.2,0.5,0.2H217C217.5,42,218,41.6,218.1,41.2z"/>
	<path class="st4" d="M218.6,48.5H201c-0.6,0-1.2,0.5-1.4,1l-1.2,5.8c0,0.2,0,0.5,0.1,0.6c0.2,0.2,0.4,0.3,0.7,0.3h17.6
		c0.6,0,1.2-0.5,1.4-1l1.2-5.8c0-0.2,0-0.5-0.1-0.6C219.2,48.6,218.9,48.5,218.6,48.5z M206.7,53.9c-0.1,0.5-0.5,0.8-1,0.8h-3.1
		c-0.2,0-0.5-0.1-0.6-0.3c-0.1-0.1-0.2-0.4-0.1-0.5c0.1-0.5,0.5-0.8,1-0.8h3.1c0.2,0,0.5,0.1,0.6,0.3
		C206.7,53.5,206.8,53.7,206.7,53.9z M207.3,50.8c-0.1,0.5-0.5,0.8-1,0.8h-3.1c-0.2,0-0.5-0.1-0.6-0.3c-0.1-0.1-0.2-0.4-0.1-0.5
		c0.1-0.4,0.5-0.8,1-0.8h3.1c0.2,0,0.5,0.1,0.6,0.3C207.3,50.4,207.4,50.6,207.3,50.8z M215,53.9c-0.1,0.5-0.5,0.8-0.9,0.8h-3.3
		c-0.2,0-0.4-0.1-0.5-0.2c-0.1-0.1-0.2-0.4-0.1-0.6c0.1-0.5,0.5-0.8,0.9-0.8h3.4c0.2,0,0.4,0.1,0.5,0.2
		C215,53.5,215.1,53.7,215,53.9z M215.7,50.8c-0.1,0.5-0.5,0.8-0.9,0.8h-3.3c-0.2,0-0.4-0.1-0.5-0.2c-0.1-0.1-0.2-0.4-0.1-0.6
		c0.1-0.5,0.5-0.8,0.9-0.8h3.3c0.2,0,0.4,0.1,0.5,0.2C215.7,50.4,215.7,50.6,215.7,50.8z"/>
	<path class="st4" d="M218.6,43h-15.2c-0.8,0-1.5,0.5-1.6,1.2l-0.4,1.8c0,0.3,0,0.6,0.2,0.8c0.2,0.2,0.5,0.4,0.9,0.4h15.2
		c0.8,0,1.5-0.5,1.6-1.2l0.4-1.8c0-0.3,0-0.6-0.2-0.8C219.2,43.2,218.9,43,218.6,43z M216.3,45.2c-0.1,0.3-0.4,0.6-0.8,0.6h-10.3
		c-0.2,0-0.4-0.1-0.5-0.2c-0.1-0.1-0.1-0.3-0.1-0.5c0.1-0.3,0.4-0.6,0.8-0.6h10.3c0.2,0,0.4,0.1,0.5,0.2
		C216.3,44.8,216.3,45,216.3,45.2z"/>
	<path class="st4" d="M221.5,37.7h-8v-0.1c0.1-0.4,0-0.8-0.2-1c-0.3-0.3-0.7-0.5-1.2-0.5c-1,0-1.9,0.7-2.1,1.6v0.1h-0.1h-7.9
		c-1,0-1.9,0.7-2,1.5l-0.1,0.4c-0.1,0.4,0,0.7,0.2,1c0.2,0.3,0.6,0.5,1,0.5c0.9,0,1.7-0.6,1.9-1.5l0.1-0.4h16.7l-0.1,0.5
		c-0.1,0.4,0,0.7,0.2,1c0.2,0.3,0.6,0.5,1,0.5c0.9,0,1.7-0.6,1.9-1.5l0.1-0.4c0.1-0.4,0-0.7-0.2-1C222.4,37.9,222,37.7,221.5,37.7z"
		/>
	<path class="st4" d="M228.2,39.9c0.8-0.1,1.4-0.7,1.6-1.5l0.1-0.4c0.1-0.4,0-0.7-0.2-1s-0.6-0.5-1-0.5c-0.9,0-1.7,0.7-1.9,1.5
		l-0.1,0.4c-0.1,0.4,0,0.8,0.3,1C227.2,39.8,227.7,40,228.2,39.9z"/>
	<path class="st4" d="M244.9,54.2h-17.6l2.5-11.8c0-0.3,0-0.6-0.2-0.8c-0.2-0.2-0.5-0.4-0.8-0.4H226c-0.5,0-1,0.4-1,0.8
		c0,0.2,0,0.4,0.1,0.5c0.1,0.1,0.3,0.2,0.5,0.2h1l-2.4,11.4H224c-0.5,0-1,0.4-1,0.8c0,0.2,0,0.4,0.1,0.5c0.1,0.1,0.3,0.2,0.5,0.2
		h20.8c0.4,0,0.7-0.2,0.9-0.5c0.2-0.3,0.2-0.5,0.1-0.8C245.4,54.4,245.2,54.2,244.9,54.2z"/>
	<path class="st4" d="M248,39.5h-9.2l0.9-1.2c0.3-0.4,0.4-0.9,0.2-1.3c-0.2-0.4-0.5-0.5-1-0.5c-0.5,0-1.1,0.3-1.4,0.7l-1.7,2.3h-3.3
		c-0.5,0-1,0.4-1,0.8c0,0.2,0,0.4,0.1,0.5c0.1,0.1,0.3,0.2,0.5,0.2h2.5l-2.8,3.8c-0.3,0.4-0.4,0.9-0.2,1.3c0.2,0.4,0.5,0.5,1,0.5
		h5.1l-0.5,2.3h-6.9c-0.5,0-1,0.4-1,0.8c0,0.2,0,0.4,0.1,0.5c0.1,0.1,0.3,0.2,0.5,0.2h7l-0.3,1.4c-0.1,0.4,0,0.7,0.2,1
		s0.6,0.5,1,0.5c0.9,0,1.7-0.6,1.9-1.5l0.3-1.4h4.9c0.3,0,0.7-0.2,0.9-0.5c0.2-0.3,0.2-0.5,0.1-0.8c-0.1-0.2-0.3-0.3-0.6-0.3h-5
		l0.5-2.3h4c0.4,0,0.7-0.2,0.9-0.5c0.2-0.3,0.2-0.5,0.1-0.8c-0.1-0.2-0.3-0.3-0.6-0.3h-4l0-0.2c0.1-0.4,0-0.7-0.2-1
		c-0.2-0.3-0.6-0.5-1-0.5c-0.9,0-1.7,0.6-1.9,1.5l0,0.2h-3.5l3-4.1h9.9c0.4,0,0.7-0.2,0.9-0.5c0.2-0.3,0.2-0.5,0.1-0.8
		C248.5,39.6,248.3,39.5,248,39.5z"/>
	<g>
		<path class="st4" d="M274,36.8c-0.2-0.3-0.5-0.4-1-0.4h-18.3c-0.8,0-1.6,0.6-1.7,1.3l-3.5,16.6c-0.1,0.4,0,0.7,0.2,1
			c0.2,0.3,0.6,0.5,1.1,0.5c0.9,0,1.8-0.7,2-1.5L256,39c0.1-0.6,0.8-1.1,1.4-1.1h12.3c0.3,0,0.6,0.1,0.8,0.4
			c0.2,0.2,0.2,0.5,0.2,0.8l-3.2,15.1h-0.8c-0.5,0-1,0.4-1.1,0.9c0,0.2,0,0.4,0.1,0.5c0.1,0.2,0.4,0.3,0.6,0.3h2.7
			c0.7,0,1.4-0.5,1.5-1.2l3.6-16.9C274.2,37.4,274.2,37.1,274,36.8z"/>
		<path class="st4" d="M259.8,45.7L259.8,45.7l2.3-3.5c0.2-0.3,0.3-0.6,0.2-0.9c0-0.2-0.2-0.4-0.4-0.5c-0.1,0-0.3-0.1-0.4-0.1
			c-0.4,0-0.8,0.2-1.1,0.6l-1.3,1.9l-0.5-2c0-0.2-0.2-0.4-0.4-0.5c-0.1,0-0.2-0.1-0.4-0.1c-0.1,0-0.3,0-0.5,0.1
			c-0.6,0.3-1,0.9-0.8,1.4l0.9,3.5l0,0l0,0l-2.3,3.5c-0.2,0.3-0.3,0.6-0.2,0.9c0,0.2,0.2,0.4,0.4,0.5c0.5,0.2,1.1,0,1.5-0.5l1.3-1.9
			l0,0l0.5,2c0,0.2,0.2,0.4,0.4,0.5c0.2,0.1,0.5,0.1,0.9,0c0.6-0.3,1-0.9,0.8-1.4L259.8,45.7z"/>
		<path class="st4" d="M266.3,50.5c0.6-0.3,1-0.9,0.8-1.4l-0.8-3.1l0-0.2l0-0.2l0.2-0.3l2.1-3.2c0.2-0.3,0.3-0.6,0.2-0.9
			c0-0.2-0.2-0.4-0.4-0.5c-0.1,0-0.3-0.1-0.4-0.1c-0.4,0-0.8,0.2-1.1,0.6l-1.1,1.6l0,0l-0.2,0.3l0-0.2l0-0.2l-0.4-1.6
			c0-0.2-0.2-0.4-0.4-0.5c-0.1,0-0.2-0.1-0.4-0.1c-0.1,0-0.3,0-0.5,0.1c-0.6,0.3-1,0.9-0.8,1.4l0.8,3.1l0,0.2l0,0.2l-2.3,3.5
			c-0.2,0.3-0.3,0.6-0.2,0.9c0,0.2,0.2,0.4,0.4,0.5c0.5,0.2,1.1,0,1.5-0.5l1.3-1.9l0,0l0,0.2l0,0.2l0.4,1.6c0,0.2,0.2,0.4,0.4,0.5
			C265.7,50.6,266,50.6,266.3,50.5z"/>
	</g>
</g>
<text transform="matrix(1 0 0 1 -7.1925 -105.7705)"><tspan x="0" y="0" class="st0" style="font-family:'MicrosoftYaHei-Bold'; font-size:43.0615px;">富连网增值服务</tspan><tspan x="301.4" y="0" class="st1" style="font-family:'MicrosoftYaHei'; font-size:43.0615px;">系统入口</tspan></text>
</svg>
