<?xml version="1.0" standalone="no"?><!DOCTYPE svg PUBLIC "-//W3C//DTD SVG 1.1//EN" "http://www.w3.org/Graphics/SVG/1.1/DTD/svg11.dtd"><svg t="1558945373120" class="icon" style="" viewBox="0 0 1024 1024" version="1.1" xmlns="http://www.w3.org/2000/svg" p-id="18070" xmlns:xlink="http://www.w3.org/1999/xlink" width="200" height="200"><defs><style type="text/css"></style></defs><path d="M697.527528 607.362749l41.183913 26.789535c66.374073 26.789535 131.948458 55.57829 197.122999 85.566576 7.197189 3.19875 11.995314 9.996095 13.594689 17.593128 14.794221 64.774697 23.590785 131.14877 26.389692 197.522842 0.399844 13.994533-10.795783 25.19016-24.790317 24.790316-93.563452 0-163.136275 16.79344-229.910191 33.187037-65.574385 15.593909-128.349863 31.187817-209.118313 31.187817-165.135494 0-257.09957-63.97501-439.828192-63.97501-13.994533 0-24.390472-11.195627-23.990629-24.790316 2.399063-66.773916 11.595471-133.147989 26.389692-198.722374 1.599375-7.597032 5.997657-13.194846 13.194846-16.393596 64.774697-29.988286 130.748926-58.77704 197.122998-85.566576l41.183913-26.789535v-4.398282c-26.789535 3.19875-52.779383-1.199531-72.771574-17.992972 23.590785 3.598594 47.981257-3.598594 71.971886-15.993752-0.399844-35.186255 0.799688-63.97501-0.399844-89.964858-0.799688-1.599375-1.599375-3.19875-2.399062-4.398282-5.997657 0-11.995314-1.599375-17.992972-4.798125-42.383444-23.990629-66.773916-81.568137-66.773916-128.749707 0-21.591566 15.194065-39.984381 35.985943-43.183132-1.999219-31.987505-3.19875-57.177665-5.597814-83.9672-3.998438 9.996095-7.597032 21.191722-11.195626 35.985943-9.196408 33.986724 0 51.180008 0 51.180008-13.194846-15.593909-20.392034-61.975791-14.394378-100.760641-7.197189 8.39672-13.194846 19.192503-16.393596 33.986724-3.598594-27.589223 1.999219-54.778602 13.994534-71.971886-13.194846 6.797345-20.791878 27.189379-25.590004 42.783288 3.998438-81.168294 53.179227-133.947677 123.151893-167.934401C392.046857 10.795783 454.022647 3.998438 508.401406 5.19797c92.36392-0.799688 188.726279 26.389692 189.126122 82.767668 20.392034 4.798126 32.787193 21.99141 42.783288 40.384225 8.796564 16.79344 19.592347 34.386568 17.593128 53.579071-4.398282 39.984381-5.997657 70.772355-8.796564 115.155018 20.791878 3.19875 35.985943 21.591566 35.985943 43.183131 0 47.18157-24.390472 104.759078-66.773917 128.749707-5.597813 3.19875-11.595471 4.798126-17.992971 4.798126-0.799688 1.599375-1.599375 3.19875-2.399063 4.398282-1.199531 26.389692 0 54.778602-0.399844 89.964857 23.990629 11.995314 48.381101 19.192503 71.971886 15.993753-19.592347 16.79344-45.982038 21.191722-72.771573 17.992971l0.799687 5.19797zM334.069504 307.080047c46.781726-15.993752 85.166732-9.996095 125.550957-3.198751 17.193284 2.798907 34.786412 5.997657 52.779383 6.797345 18.392815-1.199531 35.985943-3.998438 53.179227-6.797345 40.384225-6.797345 79.169075-13.194846 125.9508 3.598595 12.795002 4.798126 6.397501 19.592347 3.998438 32.787192-0.799688 4.798126-4.398282 8.796564-9.196407 9.596252-5.997657 15.194065-0.399844 53.978914-29.188599 74.370948-13.59469 9.596251-31.187817 11.995314-52.379539 11.995315-50.38032 0-65.974229-23.990629-79.568918-72.37173-1.199531-4.398282-1.199531-7.597032-5.997657-9.996095-5.997657-3.19875-15.593909-1.199531-17.593128 6.397501-13.59469 48.381101-26.789535 75.970324-80.368606 75.970324-46.781726 0-72.771574-13.194846-78.369387-67.17376-0.799688-5.997657-1.199531-13.59469-3.198751-19.192503-9.596251-1.999219-9.596251-11.195627-11.195626-19.192503-3.19875-8.39672-6.797345-19.592347 5.597813-23.590785z m-31.587661 119.553299c-11.595471-30.787973-20.791878-64.374854-24.390472-97.162046-4.398282 2.399063-7.197189 5.997657-7.197189 11.595471 0 29.988286 11.195627 62.775478 31.587661 85.566575z m443.426786-97.56189c-3.598594 33.187036-13.194846 66.773916-24.390472 97.162047 20.392034-22.791097 31.987505-55.57829 31.987505-85.566576-0.399844-5.19797-3.19875-9.196408-7.597033-11.595471z m-91.564232 163.935963c31.187817-57.977353 63.175322-121.552519 59.176884-189.126123-5.997657 3.19875-10.795783 5.19797-17.992972 6.397501 2.798907-50.38032 2.399063-119.953143-42.383444-152.740335-44.782507 31.187817-92.36392 10.795783-141.144865 43.982819-49.180789-33.187036-96.362358-12.795002-141.144865-43.982819C325.672784 190.325654 325.27294 259.498633 328.071847 309.878954c-7.197189-1.599375-11.995314-3.19875-17.992972-6.397501-1.599375 26.389692 5.19797 60.776259 13.59469 87.565794 11.195627 35.186255 26.389692 69.972667 45.582194 101.560328 4.398282 5.19797 9.196408 11.195627 14.794221 16.79344-3.19875 10.795783-4.798126 19.592347-8.796563 28.788755 33.58688-23.190941 65.174541-47.18157 92.36392-53.978915 17.193284-4.398282 28.788754-1.599375 43.982819 5.997657 15.194065-7.597032 26.789535-10.395939 43.982819-5.997657 27.189379 6.797345 58.77704 31.187817 92.363921 53.978915-3.998438-9.196408-5.597813-17.593128-8.796564-28.788755 5.597813-5.597813 10.795783-11.195627 15.194065-16.393596z m-325.872706 151.140961l-15.593909 9.996095c36.785631 97.162046 105.158922 158.338149 199.122218 224.312378 93.563452-65.974229 162.336587-127.150332 199.122218-224.312378l-15.593909-9.996095c-0.399844 5.997657-0.799688 11.595471-1.599375 17.992971-31.987505 28.388911-93.163608 79.169075-181.928934 87.965638-88.765326-8.796564-149.941429-59.576728-181.928934-87.965638-0.399844-6.397501-1.199531-11.995314-1.599375-17.992971z m105.558766-89.964858c9.996095-7.996876 19.592347-15.593909 29.988286-22.391253 14.394377-8.796564 29.988286-15.593909 47.981257-19.192503 17.992971 3.598594 33.58688 10.395939 47.981257 19.192503 9.996095 6.797345 19.992191 14.394377 29.988286 22.391253-17.193284 29.988286-62.375635 34.786412-59.976572-6.797345 0.799688-12.795002-8.796564-15.593909-17.992971-15.593908-8.796564 0-18.792659 2.399063-17.992971 15.593908 2.399063 41.583756-42.383444 37.185474-59.976572 6.797345zM943.431472 927.637642c-2.798907-60.776259-11.195627-121.152675-24.390472-180.729403-59.176884-27.189379-119.153456-53.179227-179.529872-77.969543-3.998438 9.996095-8.39672 19.992191-12.795001 29.188598 55.57829 23.190941 109.557204 46.381882 164.335806 71.172198 10.795783 52.379539 17.992971 105.558766 20.392034 159.137837 10.795783-0.399844 21.191722-0.799688 31.987505-0.799687zM297.283873 698.127294c-4.398282-9.596251-8.796564-19.192503-12.795001-29.188598C224.112456 693.729012 164.135884 719.71886 104.959 746.908239c-13.194846 59.576728-21.591566 119.553299-24.390472 180.729403 10.795783 0 21.191722 0.399844 31.987505 0.799687 2.798907-53.579071 9.596251-106.758298 20.392034-159.137837 54.378758-24.790316 109.15736-48.381101 164.335806-71.172198z" fill="#3A6287" p-id="18071"></path></svg>