<?xml version="1.0" standalone="no"?><!DOCTYPE svg PUBLIC "-//W3C//DTD SVG 1.1//EN" "http://www.w3.org/Graphics/SVG/1.1/DTD/svg11.dtd"><svg t="1558949401841" class="icon" style="" viewBox="0 0 1024 1024" version="1.1" xmlns="http://www.w3.org/2000/svg" p-id="29201" xmlns:xlink="http://www.w3.org/1999/xlink" width="200" height="200"><defs><style type="text/css"></style></defs><path d="M306.688 823.04s148.5312-59.3152 147.5584-74.368c-1.4592-26.752-3.8912-64.1792-3.8912-64.1792 0-29.6448 23.7824-53.4784 53.4016-53.4784 29.1072 0 53.376 23.808 53.376 53.504v48.5888c0 14.08 133.0176 153.6 133.0176 153.6" fill="#FDE8CF" p-id="29202"></path><path d="M371.712 750.848s33.9968-0.4864 53.4016 0c22.8096 0.512 49.5104 90.9056 82.0224 87.5008 39.808-3.8912 53.4016-97.2032 78.1568-97.2032h58.24c58.752 0 94.6688 11.648 94.6688 70.4768v211.84H274.6368v-211.84c0-58.3424 38.3488-58.3424 97.0752-60.7744z" fill="#14AA82" p-id="29203"></path><path d="M512 152.2176c145.6128 0 263.5776 118.1184 263.5776 263.936v25.7792c0 145.8176-117.9648 263.936-263.5776 263.936S248.4224 587.776 248.4224 441.9584v-25.7536C248.4224 270.336 366.3872 152.2176 512 152.2176z" fill="#FDE8CF" p-id="29204"></path><path d="M823.1424 319.4368C823.1424 174.08 689.664 17.0752 562.4832 0.0512h-98.56c-145.5872 0-258.2016 152.6528-258.2016 297.984 0 0 2.8928 33.536-0.512 20.4288 18.4576 75.3408 5.376 52.48 59.2384 34.0224 43.1872-14.592 113.5872 30.6176 175.7184 25.2672 42.7008-3.3792 116.48-34.5088 154.368-52.992 32 21.888 91.2384 59.8016 122.3168 58.8288 70.3744-2.9184 106.2912-64.1536 106.2912-64.1536z" fill="#253C54" p-id="29205"></path><path d="M246.4768 491.52c-36.864 0-66.4832-26.2656-66.4832-58.3424s29.5936-58.8032 66.4832-58.8032m533.4528 0.4864c35.456 0 64.0768 26.24 64.0768 58.8032 0 32.5632-54.3488 58.3424-64.0768 58.3424" fill="#FDE8CF" p-id="29206"></path><path d="M408.1152 426.7008c17.4848 0 32.0512 14.592 32.0512 32.0768 0 17.5104-14.5664 32.0768-32.0512 32.0768-17.4592 0-32.0256-14.08-32.0256-32.0768 0-17.4848 14.08-32.0768 32.0256-32.0768zM567.808 458.7776a32.1024 32.1024 0 0 0 48.0768 27.8016 32.1024 32.1024 0 0 0-32.0512-55.5776 32.1024 32.1024 0 0 0-16 27.776z" fill="#012428" p-id="29207"></path></svg>